<svg width="17" height="16" viewBox="0 0 17 16" fill="none" xmlns="http://www.w3.org/2000/svg">
<path d="M9.26427 15.787L15.5673 9.48393C15.8513 9.19995 15.8513 8.73944 15.5673 8.45542C15.2832 8.17139 14.8228 8.17139 14.5387 8.45542L9.47712 13.517L9.47644 0.727175C9.47644 0.325575 9.15082 -2.89783e-07 8.74917 -3.07339e-07C8.34752 -3.24896e-07 8.0219 0.325672 8.02195 0.727321L8.02262 13.5168L2.96119 8.45547C2.67717 8.17144 2.21671 8.17144 1.93269 8.45547C1.79068 8.59743 1.71964 8.78356 1.71964 8.9697C1.71964 9.15583 1.79068 9.34196 1.93269 9.48393L8.23576 15.787C8.37215 15.9233 8.55714 16 8.75002 16C8.9429 16 9.12788 15.9233 9.26427 15.787Z" fill="currentColor"/>
</svg>
