<svg width="18" height="18" viewBox="0 0 18 18" fill="none" xmlns="http://www.w3.org/2000/svg">
<path fill-rule="evenodd" clip-rule="evenodd" d="M0.685475 0.685963C0.868564 0.503102 1.11675 0.400391 1.37552 0.400391C1.63428 0.400391 1.88247 0.503102 2.06556 0.685963L17.6891 16.3095C17.7851 16.3989 17.862 16.5067 17.9154 16.6265C17.9687 16.7463 17.9974 16.8756 17.9998 17.0067C18.0021 17.1378 17.9779 17.268 17.9288 17.3896C17.8797 17.5112 17.8066 17.6217 17.7139 17.7144C17.6212 17.8071 17.5107 17.8802 17.3891 17.9293C17.2675 17.9784 17.1373 18.0026 17.0062 18.0002C16.8751 17.9979 16.7458 17.9692 16.626 17.9159C16.5062 17.8625 16.3984 17.7855 16.309 17.6896L0.685475 2.06604C0.502613 1.88296 0.399902 1.63477 0.399902 1.376C0.399902 1.11724 0.502613 0.869052 0.685475 0.685963Z" fill="currentColor"/>
<path fill-rule="evenodd" clip-rule="evenodd" d="M17.7135 0.686756C17.8969 0.870353 17.9999 1.11923 17.9999 1.37871C17.9999 1.6382 17.8969 1.88707 17.7135 2.07067L2.04662 17.7376C1.861 17.9106 1.61549 18.0047 1.36181 18.0002C1.10814 17.9958 0.866101 17.893 0.686698 17.7136C0.507295 17.5342 0.404531 17.2922 0.400055 17.0385C0.395579 16.7848 0.489741 16.5393 0.662704 16.3537L16.3296 0.686756C16.5132 0.503387 16.7621 0.400391 17.0216 0.400391C17.2811 0.400391 17.5299 0.503387 17.7135 0.686756Z" fill="currentColor"/>
</svg>
