<svg width="18" height="18" viewBox="0 0 18 18" fill="none" xmlns="http://www.w3.org/2000/svg">
<path d="M13.875 0.757812H4.125C3.03135 0.759004 1.98283 1.19398 1.2095 1.96731C0.436171 2.74064 0.00119113 3.78916 0 4.88281L0 13.1328C0.00119113 14.2265 0.436171 15.275 1.2095 16.0483C1.98283 16.8216 3.03135 17.2566 4.125 17.2578H13.875C14.9687 17.2566 16.0172 16.8216 16.7905 16.0483C17.5638 15.275 17.9988 14.2265 18 13.1328V4.88281C17.9988 3.78916 17.5638 2.74064 16.7905 1.96731C16.0172 1.19398 14.9687 0.759004 13.875 0.757812ZM13.875 3.00781C14.3298 3.00933 14.7683 3.17772 15.1073 3.48106L10.2323 8.35606C9.90114 8.67231 9.46088 8.84878 9.003 8.84878C8.54512 8.84878 8.10486 8.67231 7.77375 8.35606L2.89875 3.48106C3.23614 3.17909 3.67222 3.01079 4.125 3.00781H13.875ZM13.875 15.0078H4.125C3.62772 15.0078 3.15081 14.8103 2.79917 14.4586C2.44754 14.107 2.25 13.6301 2.25 13.1328V6.02056L6.17925 9.94981C6.54957 10.3203 6.98925 10.6142 7.47318 10.8147C7.95711 11.0152 8.4758 11.1184 8.99963 11.1184C9.52345 11.1184 10.0421 11.0152 10.5261 10.8147C11.01 10.6142 11.4497 10.3203 11.82 9.94981L15.75 6.02056V13.1328C15.75 13.6301 15.5525 14.107 15.2008 14.4586C14.8492 14.8103 14.3723 15.0078 13.875 15.0078Z" fill="currentColor"/>
</svg>
