<svg width="40" height="40" viewBox="0 0 40 40" fill="none" xmlns="http://www.w3.org/2000/svg">
<path d="M22.3438 30.625C22.9909 30.625 23.5156 31.1497 23.5156 31.7969C23.5156 32.4441 22.9909 32.9688 22.3438 32.9688H12.9688C12.3216 32.9688 11.7969 32.4441 11.7969 31.7969C11.7969 31.1497 12.3216 30.625 12.9688 30.625H22.3438Z" fill="currentColor"/>
<path d="M27.0312 25.9375C27.6784 25.9375 28.2031 26.4622 28.2031 27.1094C28.2031 27.7566 27.6784 28.2812 27.0312 28.2812H12.9688C12.3216 28.2812 11.7969 27.7566 11.7969 27.1094C11.7969 26.4622 12.3216 25.9375 12.9688 25.9375H27.0312Z" fill="currentColor"/>
<path d="M27.0312 21.25C27.6784 21.25 28.2031 21.7747 28.2031 22.4219C28.2031 23.0691 27.6784 23.5938 27.0312 23.5938H12.9688C12.3216 23.5938 11.7969 23.0691 11.7969 22.4219C11.7969 21.7747 12.3216 21.25 12.9688 21.25H27.0312Z" fill="currentColor"/>
<path d="M27.0312 16.5625C27.6784 16.5625 28.2031 17.0872 28.2031 17.7344C28.2031 18.3816 27.6784 18.9062 27.0312 18.9062H12.9688C12.3216 18.9062 11.7969 18.3816 11.7969 17.7344C11.7969 17.0872 12.3216 16.5625 12.9688 16.5625H27.0312Z" fill="currentColor"/>
<path fill-rule="evenodd" clip-rule="evenodd" d="M24.6875 0C24.9983 0.000175658 25.2967 0.124054 25.5166 0.34375L34.8906 9.71777C35.0998 9.92691 35.2344 10.2273 35.2344 10.5469V36.4844C35.2344 38.4229 33.6573 40 31.7188 40H8.28125C6.34273 40 4.76562 38.4229 4.76562 36.4844V3.51562C4.76562 1.57711 6.34273 0 8.28125 0H24.6875ZM8.28125 2.34375C7.63508 2.34375 7.10938 2.86945 7.10938 3.51562V36.4844C7.10938 37.1305 7.63508 37.6562 8.28125 37.6562H31.7188C32.3649 37.6562 32.8906 37.1305 32.8906 36.4844V11.7188H27.0312C25.0927 11.7188 23.5156 10.1416 23.5156 8.20312V2.34375H8.28125ZM25.8594 8.20312C25.8594 8.8493 26.3851 9.375 27.0312 9.375H31.2334L25.8594 4.00098V8.20312Z" fill="currentColor"/>
</svg>
