<svg width="18" height="18" viewBox="0 0 18 18" fill="none" xmlns="http://www.w3.org/2000/svg">
<path d="M14.1706 13.0452L10.1937 17.0232C10.037 17.18 9.85092 17.3044 9.64612 17.3893C9.44131 17.4741 9.22179 17.5178 9.00009 17.5178C8.77839 17.5178 8.55887 17.4741 8.35406 17.3893C8.14925 17.3044 7.96318 17.18 7.80646 17.0232L3.82959 13.0452C3.15052 12.3662 2.61183 11.5601 2.24429 10.6729C1.87675 9.7857 1.68755 8.83481 1.6875 7.87451C1.68745 6.91421 1.87654 5.9633 2.24399 5.07607C2.61143 4.18885 3.15003 3.38269 3.82903 2.70361C4.50803 2.02454 5.31413 1.48585 6.20131 1.11831C7.0885 0.750773 8.03939 0.561576 8.99969 0.561523C9.95999 0.561471 10.9109 0.750565 11.7981 1.11801C12.6854 1.48545 13.4915 2.02405 14.1706 2.70305C14.8497 3.38209 15.3884 4.18826 15.756 5.07552C16.1235 5.96277 16.3127 6.91374 16.3127 7.87411C16.3127 8.83449 16.1235 9.78545 15.756 10.6727C15.3884 11.56 14.8497 12.3661 14.1706 13.0452ZM12.9781 3.89667C12.4557 3.37428 11.8355 2.95989 11.153 2.67717C10.4704 2.39445 9.73887 2.24893 9.00009 2.24893C8.26131 2.24893 7.52976 2.39445 6.84721 2.67717C6.16466 2.95989 5.54449 3.37428 5.02209 3.89667C4.49969 4.41907 4.0853 5.03925 3.80258 5.7218C3.51986 6.40434 3.37435 7.13589 3.37435 7.87468C3.37435 8.61346 3.51986 9.34501 3.80258 10.0276C4.0853 10.7101 4.49969 11.3303 5.02209 11.8527L9.00009 15.8284L12.9781 11.8527C13.5006 11.3303 13.915 10.7102 14.1978 10.0276C14.4806 9.34506 14.6261 8.61349 14.6261 7.87468C14.6261 7.13586 14.4806 6.40429 14.1978 5.72174C13.915 5.03919 13.5006 4.41902 12.9781 3.89667ZM9.00009 10.1247C8.70046 10.1315 8.40249 10.0783 8.12369 9.96833C7.84488 9.85837 7.59085 9.69381 7.37652 9.48432C7.16219 9.27483 6.99186 9.02463 6.87556 8.74841C6.75925 8.47219 6.6993 8.17552 6.69922 7.87581C6.69915 7.57611 6.75895 7.2794 6.87512 7.00312C6.99129 6.72685 7.16149 6.47656 7.37571 6.26697C7.58994 6.05737 7.84389 5.89269 8.12264 5.78258C8.40139 5.67248 8.69933 5.61917 8.99896 5.6258C9.58685 5.6388 10.1463 5.88143 10.5575 6.30174C10.9687 6.72206 11.1991 7.28666 11.1992 7.87469C11.1994 8.46271 10.9693 9.02743 10.5583 9.44795C10.1473 9.86847 9.58796 10.1114 9.00009 10.1247Z" fill="currentColor" stroke="currentColor" stroke-width="0.5"/>
</svg>
