<svg width="18" height="18" viewBox="0 0 18 18" fill="none" xmlns="http://www.w3.org/2000/svg">
<path d="M13.1256 18.0078C7.0139 18.1796 -3.8056 7.34806 1.39715 1.46131C1.4159 1.44331 2.21615 0.745813 2.21615 0.745813C2.7184 0.28152 3.37879 0.0262167 4.06274 0.0319302C4.74669 0.0376438 5.40273 0.303944 5.89715 0.776563L7.51115 2.51506C7.98657 3.01192 8.2495 3.6746 8.24403 4.36225C8.23857 5.0499 7.96516 5.70832 7.4819 6.19756L7.1909 6.49306C8.05755 8.41223 9.59086 9.95193 11.5064 10.8266L11.8146 10.5266C12.3146 10.0504 12.9786 9.78478 13.669 9.78478C14.3595 9.78478 15.0234 10.0504 15.5234 10.5266L17.2011 12.0828C17.6981 12.5683 17.9834 13.2303 17.9949 13.9249C18.0064 14.6195 17.7432 15.2906 17.2626 15.7923C17.2626 15.7923 16.5651 16.5918 16.5471 16.6106C16.0977 17.0583 15.5638 17.4124 14.9765 17.6523C14.3892 17.8921 13.7601 18.013 13.1256 18.0078ZM2.96315 3.08281C-0.681101 7.59631 10.9836 18.5876 14.9294 15.0453C14.9294 15.0453 15.6224 14.2511 15.6411 14.2331C15.7114 14.1627 15.7509 14.0674 15.7509 13.9679C15.7509 13.8685 15.7114 13.7731 15.6411 13.7028L13.9626 12.1473C13.7376 11.9598 13.6109 11.9576 13.4024 12.1173L12.5504 12.9558C12.3967 13.107 12.2028 13.2108 11.9918 13.255C11.7808 13.2991 11.5615 13.2817 11.3601 13.2048C9.86362 12.6479 8.50431 11.7758 7.37437 10.6475C6.24443 9.51927 5.37027 8.16126 4.81115 6.66556C4.72977 6.46253 4.70934 6.24018 4.75237 6.02572C4.79539 5.81126 4.9 5.61399 5.0534 5.45806L5.8844 4.61356C5.92224 4.57995 5.95265 4.5388 5.97369 4.49276C5.99472 4.44672 6.00591 4.39679 6.00655 4.34618C6.00718 4.29556 5.99725 4.24537 5.97738 4.19882C5.95751 4.15226 5.92814 4.11037 5.89115 4.07581L4.27565 2.33731C4.20417 2.27758 4.11256 2.24741 4.01957 2.25299C3.92658 2.25856 3.83923 2.29946 3.7754 2.36731C3.7574 2.38606 2.96315 3.08281 2.96315 3.08281ZM18.0006 7.13281C17.9985 5.24382 17.2471 3.43281 15.9114 2.09709C14.5756 0.761365 12.7646 0.00999597 10.8756 0.0078125C10.5773 0.0078125 10.2911 0.126339 10.0802 0.337317C9.86917 0.548296 9.75065 0.834444 9.75065 1.13281C9.75065 1.43118 9.86917 1.71733 10.0802 1.92831C10.2911 2.13929 10.5773 2.25781 10.8756 2.25781C12.1681 2.2594 13.4071 2.77352 14.321 3.68742C15.2349 4.60132 15.7491 5.84037 15.7506 7.13281C15.7506 7.43118 15.8692 7.71733 16.0802 7.92831C16.2911 8.13929 16.5773 8.25781 16.8756 8.25781C17.174 8.25781 17.4602 8.13929 17.6711 7.92831C17.8821 7.71733 18.0006 7.43118 18.0006 7.13281ZM14.2506 7.13281C14.2497 6.23801 13.8938 5.38014 13.261 4.74742C12.6283 4.1147 11.7704 3.75881 10.8756 3.75781C10.5773 3.75781 10.2911 3.87634 10.0802 4.08732C9.86917 4.2983 9.75065 4.58444 9.75065 4.88281C9.75065 5.18118 9.86917 5.46733 10.0802 5.67831C10.2911 5.88929 10.5773 6.00781 10.8756 6.00781C11.174 6.00781 11.4602 6.12634 11.6711 6.33732C11.8821 6.5483 12.0006 6.83444 12.0006 7.13281C12.0006 7.43118 12.1192 7.71733 12.3302 7.92831C12.5411 8.13929 12.8273 8.25781 13.1256 8.25781C13.424 8.25781 13.7102 8.13929 13.9211 7.92831C14.1321 7.71733 14.2506 7.43118 14.2506 7.13281Z" fill="currentColor"/>
</svg>
