<svg width="25" height="24" viewBox="0 0 25 24" fill="none" xmlns="http://www.w3.org/2000/svg">
<path d="M19.9082 10.2748H14.4042V4.77078C14.4042 3.81878 13.6362 3.05078 12.6842 3.05078C11.7322 3.05078 10.9642 3.81878 10.9642 4.77078V10.2748H5.46023C4.50823 10.2748 3.74023 11.0428 3.74023 11.9948C3.74023 12.9468 4.50823 13.7148 5.46023 13.7148H10.9642V19.2188C10.9642 20.1708 11.7322 20.9388 12.6842 20.9388C13.6362 20.9388 14.4042 20.1708 14.4042 19.2188V13.7148H19.9082C20.8602 13.7148 21.6282 12.9468 21.6282 11.9948C21.6282 11.0428 20.8602 10.2748 19.9082 10.2748Z" fill="currentColor"/>
</svg>
