<svg width="36" height="36" viewBox="0 0 36 36" fill="none" xmlns="http://www.w3.org/2000/svg">
<rect y="-0.00390625" width="36" height="36" rx="18" fill="var(--icon_bg)"/>
<path d="M20.1175 19.0814H11.6086V15.6934H20.1175C20.6146 15.6934 20.9602 15.7806 21.1336 15.9328C21.307 16.085 21.4145 16.3674 21.4145 16.7798V17.9963C21.4145 18.4308 21.307 18.7132 21.1336 18.8654C20.9602 19.0176 20.6146 19.0827 20.1175 19.0827V19.0814ZM20.7013 12.4994H8V26.9878H11.6086V22.2741H18.2589L21.4145 26.9878H25.4554L21.9762 22.252C23.2589 22.0608 23.8349 21.6653 24.3099 21.0134C24.7849 20.3616 25.0231 19.3195 25.0231 17.9286V16.8423C25.0231 16.0174 24.9363 15.3656 24.7849 14.866C24.6335 14.3664 24.3746 13.9318 24.007 13.5415C23.6187 13.172 23.1864 12.9118 22.6674 12.7374C22.1483 12.5852 21.4999 12.498 20.7013 12.498V12.4994Z" fill="currentColor"/>
<path d="M28.2276 12.4985C29.7588 12.4985 31 11.265 31 9.74338C31 8.22178 29.7588 6.98828 28.2276 6.98828C26.6965 6.98828 25.4553 8.22178 25.4553 9.74338C25.4553 11.265 26.6965 12.4985 28.2276 12.4985Z" fill="currentColor"/>
</svg>
