<svg width="15" height="16" viewBox="0 0 15 16" fill="none" xmlns="http://www.w3.org/2000/svg">
<path d="M14.6666 13.0466L11.5746 9.95474C12.3198 8.8791 12.6925 7.67997 12.6925 6.358C12.6925 5.49863 12.5257 4.67675 12.192 3.89253C11.8586 3.10818 11.4078 2.43213 10.8399 1.86422C10.272 1.29631 9.59603 0.84554 8.81184 0.512062C8.0274 0.178489 7.20558 0.0117188 6.34621 0.0117188C5.48691 0.0117188 4.66503 0.178489 3.88081 0.512062C3.09646 0.84554 2.42041 1.29631 1.8525 1.86422C1.28453 2.43213 0.833821 3.10831 0.500311 3.89253C0.16677 4.67684 0 5.49863 0 6.358C0 7.2173 0.16677 8.0389 0.500311 8.82334C0.833789 9.60756 1.28453 10.2835 1.8525 10.8514C2.42041 11.4195 3.09659 11.8701 3.88081 12.2038C4.66512 12.5373 5.48691 12.704 6.34621 12.704C7.66848 12.704 8.86741 12.3312 9.94311 11.5862L13.0351 14.669C13.2514 14.8973 13.5215 15.0116 13.8463 15.0116C14.1588 15.0116 14.4293 14.8974 14.6575 14.669C14.8858 14.4407 15 14.1703 15 13.8578C15.0001 13.5395 14.889 13.2689 14.6666 13.0466ZM9.19931 9.21078C8.40906 10.0012 7.4581 10.3963 6.34621 10.3963C5.23452 10.3963 4.28356 10.0011 3.49325 9.21078C2.70293 8.42053 2.30779 7.46969 2.30779 6.35781C2.30779 5.24611 2.70303 4.29499 3.49325 3.50484C4.2834 2.71449 5.23452 2.31938 6.34621 2.31938C7.45798 2.31938 8.40893 2.71465 9.19931 3.50484C9.98969 4.29499 10.3848 5.24611 10.3848 6.35781C10.3848 7.46969 9.98956 8.42053 9.19931 9.21078Z" fill="currentColor"/>
</svg>
