<svg width="36" height="36" viewBox="0 0 36 36" fill="none" xmlns="http://www.w3.org/2000/svg">
<path d="M18 35.9961C27.9411 35.9961 36 27.9372 36 17.9961C36 8.05497 27.9411 -0.00390625 18 -0.00390625C8.05887 -0.00390625 0 8.05497 0 17.9961C0 27.9372 8.05887 35.9961 18 35.9961Z" fill="var(--icon_bg)"/>
<path d="M8.23738 17.6054L25.5924 10.9139C26.3979 10.6229 27.1014 11.1104 26.8404 12.3284L26.8419 12.3269L23.8869 26.2484C23.6679 27.2354 23.0814 27.4754 22.2609 27.0104L17.7609 23.6939L15.5904 25.7849C15.3504 26.0249 15.1479 26.2274 14.6829 26.2274L15.0024 21.6479L23.3424 14.1134C23.7054 13.7939 23.2614 13.6139 22.7829 13.9319L12.4764 20.4209L8.03338 19.0349C7.06888 18.7289 7.04788 18.0704 8.23738 17.6054Z" fill="currentColor"/>
</svg>
