<svg width="36" height="36" viewBox="0 0 36 36" fill="none" xmlns="http://www.w3.org/2000/svg">
<path d="M18 35.9961C27.9411 35.9961 36 27.9372 36 17.9961C36 8.05497 27.9411 -0.00390625 18 -0.00390625C8.05888 -0.00390625 0 8.05497 0 17.9961C0 27.9372 8.05888 35.9961 18 35.9961Z" fill="var(--icon_bg)"/>
<path d="M26.3038 23.1407C25.8822 23.1999 23.8335 23.1407 23.7269 23.1407C23.1972 23.1461 22.6868 22.9427 22.3059 22.5746C21.8724 22.1578 21.4816 21.6983 21.0672 21.2649C20.9413 21.1328 20.806 21.0101 20.6622 20.8978C20.3235 20.6396 19.9895 20.6988 19.8309 21.0967C19.7066 21.528 19.621 21.9695 19.5751 22.416C19.5677 22.604 19.486 22.7815 19.3479 22.9094C19.2098 23.0372 19.0266 23.1051 18.8385 23.0981C18.559 23.1123 18.2795 23.1194 18.0024 23.1123C16.9944 23.107 16.0019 22.8636 15.1059 22.4017C14.1385 21.8612 13.2954 21.1237 12.6309 20.237C11.5676 18.8331 10.6488 17.3254 9.88823 15.737C9.84796 15.6565 9.0498 13.9583 9.03086 13.8802C8.98137 13.7689 8.97665 13.6428 9.01766 13.5282C9.05868 13.4135 9.14229 13.319 9.25112 13.2644C9.39323 13.2099 12.0245 13.2644 12.0672 13.2644C12.2631 13.2625 12.4545 13.3233 12.6134 13.4379C12.7724 13.5526 12.8905 13.715 12.9506 13.9015C13.4372 15.1421 14.1018 16.3054 14.9235 17.3546C15.0381 17.4961 15.173 17.6198 15.3238 17.7217C15.3626 17.7592 15.4108 17.7857 15.4633 17.7984C15.5158 17.811 15.5707 17.8094 15.6224 17.7937C15.6741 17.778 15.7206 17.7488 15.7572 17.7091C15.7938 17.6694 15.8192 17.6206 15.8306 17.5678C15.9347 17.2254 15.9959 16.8713 16.013 16.5138C16.0272 15.8033 16.013 15.3296 15.9727 14.6191C15.987 14.377 15.9053 14.139 15.7452 13.9567C15.5851 13.7745 15.3597 13.6627 15.1177 13.6457C14.9093 13.6102 14.8809 13.4396 15.0253 13.2691C15.3024 12.9162 15.6861 12.8594 16.103 12.8381C16.733 12.8025 17.3653 12.8381 17.9977 12.8381H18.1351C18.4127 12.8374 18.6897 12.8651 18.9616 12.9209C19.1207 12.9535 19.2649 13.0366 19.3729 13.1578C19.4809 13.279 19.5468 13.4319 19.5609 13.5936C19.5928 13.7725 19.6071 13.9542 19.6035 14.1359C19.5869 14.9104 19.549 15.6849 19.5395 16.4617C19.5339 16.7686 19.5617 17.0751 19.6224 17.3759C19.7148 17.7881 19.9966 17.8923 20.2856 17.5915C20.6457 17.205 20.9758 16.7917 21.2732 16.3552C21.808 15.5603 22.2483 14.7059 22.5853 13.8091C22.7677 13.3496 22.9074 13.2478 23.4024 13.2478H26.1948C26.3614 13.245 26.5275 13.2674 26.6874 13.3141C26.7439 13.3292 26.7966 13.3557 26.8424 13.3919C26.8882 13.4282 26.926 13.4736 26.9536 13.5251C26.9811 13.5766 26.9978 13.6332 27.0025 13.6915C27.0073 13.7497 27 13.8083 26.9811 13.8636C26.8179 14.4577 26.5376 15.0133 26.1569 15.4978C25.5885 16.3007 24.9916 17.0846 24.409 17.8662C24.3353 17.9685 24.2681 18.0753 24.2077 18.186C23.9898 18.5791 24.0064 18.8017 24.3214 19.1333C24.8282 19.6544 25.3706 20.1446 25.8585 20.6799C26.2183 21.0699 26.5432 21.4908 26.8295 21.9375C27.1895 22.5154 26.9693 23.0459 26.3038 23.1407Z" fill="currentColor"/>
</svg>
