<svg width="44" height="45" viewBox="0 0 44 45" fill="none" xmlns="http://www.w3.org/2000/svg">
<path fill-rule="evenodd" clip-rule="evenodd" d="M2.76442 43.998C1.95242 44.156 1.16442 43.626 1.00442 42.814C0.846424 42.002 1.37642 41.212 2.18842 41.054C2.18842 41.054 16.8044 38.136 27.2104 21.722C27.6524 21.024 28.5804 20.816 29.2804 21.26C29.9784 21.702 30.1864 22.63 29.7444 23.33C18.5584 40.972 2.76442 43.998 2.76442 43.998Z" fill="#23B24B"/>
<path fill-rule="evenodd" clip-rule="evenodd" d="M17.1315 16.8459C17.5055 17.5839 17.2115 18.4879 16.4735 18.8639C15.7355 19.2379 14.8315 18.9439 14.4555 18.2059C13.5655 16.4519 12.7495 14.5959 12.0495 12.6479C11.7695 11.8679 12.1755 11.0099 12.9555 10.7299C13.7335 10.4499 14.5935 10.8559 14.8735 11.6339C15.5295 13.4619 16.2955 15.2019 17.1315 16.8459Z" fill="#23B24B"/>
<path fill-rule="evenodd" clip-rule="evenodd" d="M41.9256 6.14401C41.9256 6.14401 43.7756 13.126 42.6696 20.92C41.9156 26.236 39.7896 31.906 34.8976 36.086C29.7636 40.474 21.5076 43.272 8.33356 42.02C7.60556 41.95 7.03156 41.364 6.97956 40.634C6.97956 40.634 5.81756 24.268 17.4336 13.69C22.3856 9.17801 29.6616 5.68601 40.3836 5.02801C41.0976 4.98401 41.7436 5.45201 41.9256 6.14401ZM39.2916 8.11801C30.1336 8.90401 23.8056 11.944 19.4536 15.908C10.7496 23.834 9.95156 35.342 9.94156 39.146C21.2236 40.002 28.4296 37.668 32.9496 33.806C37.2316 30.146 39.0376 25.154 39.6996 20.498C40.4516 15.2 39.7236 10.308 39.2916 8.11801Z" fill="#23B24B"/>
<path fill-rule="evenodd" clip-rule="evenodd" d="M23.9767 10.6C24.4867 11.252 24.3727 12.194 23.7227 12.706C23.0707 13.218 22.1267 13.104 21.6167 12.452C19.0387 9.16798 15.0647 6.24198 9.06073 4.29198C8.44473 5.73798 7.44473 8.43798 6.98273 11.628C6.31473 16.248 6.76673 21.95 11.4807 26.196C12.0967 26.75 12.1447 27.698 11.5907 28.314C11.0367 28.93 10.0887 28.978 9.47273 28.424C3.88673 23.392 3.22273 16.676 4.01473 11.198C4.78273 5.87998 6.91473 1.78398 6.91473 1.78398C7.24273 1.14798 7.97473 0.833984 8.66273 1.03398C16.1207 3.19198 20.9147 6.69798 23.9767 10.6Z" fill="#23B24B"/>
</svg>
