<svg width="56" height="56" viewBox="0 0 56 56" fill="none" xmlns="http://www.w3.org/2000/svg">
<g clip-path="url(#clip0_8072_606)">
<path fill-rule="evenodd" clip-rule="evenodd" d="M28 19.8281C32.5132 19.8281 36.1719 23.4867 36.1719 27.9999C36.1719 32.5131 32.5132 36.1718 28 36.1718C23.4868 36.1718 19.8281 32.5131 19.8281 27.9999C19.8281 23.4867 23.4868 19.8281 28 19.8281ZM28 22.8281C25.1437 22.8281 22.8281 25.1436 22.8281 27.9999C22.8281 30.8563 25.1437 33.1718 28 33.1718C30.8563 33.1718 33.1719 30.8563 33.1719 27.9999C33.1719 25.1436 30.8563 22.8281 28 22.8281Z" fill="white"/>
<path fill-rule="evenodd" clip-rule="evenodd" d="M28 9.98431C31.2662 9.98431 34.332 10.8561 36.9756 12.3779C37.7447 11.8495 38.6761 11.54 39.6797 11.54C42.3202 11.54 44.4607 13.6808 44.4609 16.3212C44.4609 17.3255 44.1501 18.2569 43.6211 19.0263C45.1426 21.6697 46.0156 24.7351 46.0156 28.0009C46.0151 37.9501 37.9492 46.0163 28 46.0165C24.7334 46.0165 21.6672 45.1433 19.0234 43.621C18.2544 44.1493 17.3238 44.4599 16.3203 44.4599C13.6798 44.4599 11.5393 42.3191 11.5391 39.6786C11.5391 38.6748 11.8484 37.7428 12.377 36.9736C10.8559 34.3304 9.98438 31.2654 9.98438 27.9999C9.98438 18.0502 18.0502 9.98431 28 9.98431ZM28 12.9843C19.7071 12.9843 12.9844 19.707 12.9844 27.9999C12.9844 30.5899 13.6405 33.0228 14.793 35.1474C15.2727 34.9857 15.7861 34.8974 16.3203 34.8974C18.9609 34.8974 21.1016 37.038 21.1016 39.6786C21.1015 40.2126 21.0121 40.7255 20.8506 41.205C22.9758 42.3583 25.4093 43.0165 28 43.0165C36.2924 43.0163 43.0151 36.2932 43.0156 28.0009C43.0156 25.4105 42.3582 22.9766 41.2051 20.8515C40.7258 21.0128 40.2134 21.1025 39.6797 21.1025C37.0391 21.1025 34.8984 18.9618 34.8984 16.3212C34.8985 15.787 34.9868 15.2736 35.1484 14.7939C33.0235 13.641 30.5904 12.9843 28 12.9843ZM16.3203 37.8974C15.3366 37.8974 14.5391 38.6949 14.5391 39.6786C14.5393 40.6622 15.3367 41.4599 16.3203 41.4599C17.3039 41.4599 18.1013 40.6622 18.1016 39.6786C18.1016 38.6949 17.3041 37.8974 16.3203 37.8974ZM39.6797 14.54C38.6961 14.54 37.8987 15.3377 37.8984 16.3212C37.8984 17.305 38.6959 18.1025 39.6797 18.1025C40.6634 18.1025 41.4609 17.305 41.4609 16.3212C41.4607 15.3377 40.6633 14.54 39.6797 14.54Z" fill="white"/>
<path fill-rule="evenodd" clip-rule="evenodd" d="M28 0.140564C43.3863 0.140657 55.8594 12.6136 55.8594 27.9999C55.8594 34.0115 53.9524 39.581 50.7129 44.1337C51.162 44.8623 51.4218 45.72 51.4219 46.6386C51.4219 49.2792 49.2812 51.4199 46.6406 51.4199C45.7219 51.4199 44.8643 51.16 44.1357 50.7109C39.5826 53.9514 34.0126 55.8593 28 55.8593C12.6137 55.8593 0.140718 43.3862 0.140625 27.9999C0.140664 21.9882 2.04562 16.4171 5.28516 11.8642C4.8369 11.1362 4.57817 10.279 4.57812 9.36127C4.57812 6.72066 6.71876 4.58002 9.35938 4.58002C10.2771 4.58002 11.1342 4.83878 11.8623 5.28705C16.4156 2.04657 21.9873 0.140564 28 0.140564ZM28 3.14056C22.7191 3.14056 17.8262 4.78631 13.8008 7.59271C14.0188 8.1399 14.1406 8.73633 14.1406 9.36127C14.1405 12.0018 11.9999 14.1425 9.35938 14.1425C8.73438 14.1425 8.13804 14.0208 7.59082 13.8027C4.78534 17.8276 3.14066 22.72 3.14062 27.9999C3.14072 41.7294 14.2706 52.8593 28 52.8593C33.2806 52.8593 38.1721 51.2123 42.1973 48.4062C41.9796 47.8594 41.8594 47.263 41.8594 46.6386C41.8595 43.9981 44.0001 41.8574 46.6406 41.8574C47.2647 41.8574 47.8606 41.9778 48.4072 42.1953C51.2126 38.1704 52.8594 33.2797 52.8594 27.9999C52.8594 14.2705 41.7294 3.14066 28 3.14056ZM46.6406 44.8574C45.6569 44.8574 44.8595 45.655 44.8594 46.6386C44.8594 47.6224 45.6569 48.4199 46.6406 48.4199C47.6244 48.4199 48.4219 47.6224 48.4219 46.6386C48.4217 45.655 47.6243 44.8574 46.6406 44.8574ZM9.35938 7.58002C8.37562 7.58002 7.57812 8.37751 7.57812 9.36127C7.57826 10.3449 8.3757 11.1425 9.35938 11.1425C10.3431 11.1425 11.1405 10.3449 11.1406 9.36127C11.1406 8.37751 10.3431 7.58002 9.35938 7.58002Z" fill="white"/>
</g>
<defs>
<clipPath id="clip0_8072_606">
<rect width="56" height="56" fill="white"/>
</clipPath>
</defs>
</svg>
