<svg width="65" height="64" viewBox="0 0 65 64" fill="none" xmlns="http://www.w3.org/2000/svg">
<g clip-path="url(#clip0_8048_2777)">
<path d="M47.5 15C48.5356 15 49.375 15.8394 49.375 16.875C49.375 17.9106 48.5356 18.75 47.5 18.75H28.75C27.7144 18.75 26.875 17.9106 26.875 16.875C26.875 15.8394 27.7144 15 28.75 15H47.5Z" fill="#23B24B"/>
<path d="M47.5 7.5C48.5356 7.5 49.375 8.33937 49.375 9.375C49.375 10.4106 48.5356 11.25 47.5 11.25H28.75C27.7144 11.25 26.875 10.4106 26.875 9.375C26.875 8.33937 27.7144 7.5 28.75 7.5H47.5Z" fill="#23B24B"/>
<path fill-rule="evenodd" clip-rule="evenodd" d="M55 0C56.0356 0 56.875 0.839375 56.875 1.875V26.375H58.875C61.9765 26.375 64.5 28.8985 64.5 32C64.5 35.1015 61.9766 37.625 58.875 37.625H56.875V62.125C56.875 63.1606 56.0356 64 55 64H10C8.96437 64 8.125 63.1606 8.125 62.125V41.8135C3.90238 40.0361 0.5 36.543 0.5 32C0.5 27.4585 3.90037 23.9649 8.125 22.1865V1.875C8.125 0.839375 8.96437 0 10 0H55ZM28.5166 37.625C25.876 41.0718 20.9034 43.25 15.5 43.25C14.2843 43.2509 13.0709 43.1414 11.875 42.9229V60.25H38.125V47.125C38.125 46.0894 38.9644 45.25 40 45.25H53.125V37.625H28.5166ZM44.5273 60.25H53.125V51.6523L44.5273 60.25ZM41.875 49V57.5977L50.4727 49H41.875ZM15.5 24.5C10.6 24.5 4.25 27.167 4.25 32C4.25 36.8404 10.6132 39.5 15.5 39.5C20.0811 39.5 24.1762 37.644 25.9336 34.7715C26.1011 34.4977 26.3362 34.2712 26.6162 34.1143C26.8962 33.9573 27.2123 33.875 27.5332 33.875H34.375V30.125H27.5332C27.2123 30.1249 26.8962 30.0427 26.6162 29.8857C26.3362 29.7288 26.1011 29.5023 25.9336 29.2285C24.1762 26.356 20.081 24.5 15.5 24.5ZM38.125 30.125V33.875H58.875C59.9087 33.875 60.75 33.0337 60.75 32C60.75 30.9662 59.9087 30.125 58.875 30.125H38.125ZM11.875 3.75V21.0771C13.0479 20.8619 14.2631 20.75 15.5 20.75C20.9034 20.75 25.876 22.9282 28.5166 26.375H53.125V3.75H11.875Z" fill="#23B24B"/>
</g>
<defs>
<clipPath id="clip0_8048_2777">
<rect width="64" height="64" fill="white" transform="translate(0.5)"/>
</clipPath>
</defs>
</svg>
