<svg width="65" height="64" viewBox="0 0 65 64" fill="none" xmlns="http://www.w3.org/2000/svg">
<g clip-path="url(#clip0_8072_652)">
<path fill-rule="evenodd" clip-rule="evenodd" d="M14.6553 4.47852C17.6157 4.47852 20.0156 6.87845 20.0156 9.83887V13.4023C20.0156 14.2308 19.3441 14.9023 18.5156 14.9023H13.6816L13.6846 25.2383C15.8901 22.6991 19.1204 21.0919 22.7207 21.0918C26.7744 21.0919 30.3439 23.1309 32.5127 26.2363C34.6811 23.1315 38.2498 21.0936 42.3027 21.0928L42.3047 21.0918C45.939 21.0861 48.9783 22.5338 51.0918 24.9326C51.1672 25.0182 51.2416 25.1046 51.3145 25.1924L51.3184 14.9023H46.4844C45.6559 14.9023 44.9844 14.2308 44.9844 13.4023V9.83887C44.9844 6.87845 47.3843 4.47852 50.3447 4.47852H54.1553C58.1966 4.47864 60.8382 7.25855 61.7861 10.6885C61.7923 10.708 61.8003 10.7271 61.8057 10.7471L61.9355 11.2773C62.2338 12.6109 62.4995 14.6023 62.7363 16.8633C63.0108 19.4844 63.2567 22.5779 63.4619 25.666C63.8716 31.831 64.125 38.0477 64.125 40.5186V40.9932C64.125 43.0771 62.4355 44.7666 60.3516 44.7666H60.2031C59.1315 44.7666 58.1087 45.1069 57.3154 45.7373L57.1602 45.8672C55.8665 47.0028 54.1812 47.4528 52.584 47.6523C51.3825 47.8025 50.0918 47.8246 48.8691 47.8262L48.3643 47.8252C46.8644 49.543 45.2252 51.0838 43.626 52.4219C41.0152 54.6062 38.4108 56.3369 36.4639 57.5205C35.489 58.1131 34.6744 58.5715 34.1006 58.8828C33.8137 59.0385 33.586 59.1581 33.4287 59.2393C33.3503 59.2797 33.2887 59.3106 33.2461 59.332C33.2251 59.3426 33.2083 59.3514 33.1963 59.3574C33.1904 59.3603 33.1847 59.3632 33.1807 59.3652C33.1788 59.3661 33.1761 59.3671 33.1738 59.3682C33.1724 59.3689 33.1697 59.3703 33.168 59.3711C33.1545 59.3765 32.8386 59.4861 32.5127 59.5225C32.1733 59.4835 31.8437 59.3643 31.8359 59.3604C31.8333 59.359 31.8291 59.3575 31.8271 59.3564C31.824 59.3549 31.8204 59.3526 31.8184 59.3516C31.814 59.3493 31.8086 59.3468 31.8027 59.3438C31.7905 59.3373 31.7732 59.3287 31.752 59.3174C31.7092 59.2947 31.648 59.2614 31.5693 59.2188C31.4118 59.1334 31.1846 59.008 30.8975 58.8447C30.323 58.518 29.5071 58.038 28.5312 57.418C26.5825 56.1798 23.9772 54.3738 21.3652 52.1055C19.9095 50.8412 18.4224 49.4074 17.0381 47.8252C15.6495 47.8273 14.0883 47.8229 12.6416 47.6543C11.0766 47.4718 9.38113 47.0743 8.09277 46.0752L7.84082 45.8672C7.02809 45.1537 5.94093 44.7667 4.79785 44.7666H4.64844C2.56452 44.7666 0.875012 43.0771 0.875 40.9932V40.5186C0.875 38.0477 1.12844 31.831 1.53809 25.666C1.74328 22.5779 1.98917 19.4844 2.26367 16.8633C2.53429 14.2794 2.84292 12.0472 3.19434 10.7471L3.21289 10.6885C4.1606 7.25839 6.80327 4.47864 10.8447 4.47852H14.6553ZM42.3047 24.0918C38.4988 24.092 35.2244 26.5069 33.9141 29.9482C33.6924 30.5296 33.1349 30.914 32.5127 30.9141C31.9292 30.914 31.4023 30.5761 31.1562 30.0547L31.1104 29.9482C29.7999 26.5071 26.5264 24.092 22.7207 24.0918C17.7813 24.0919 13.7081 28.1623 13.6875 33.2305V33.3115C13.7014 37.6411 15.825 41.6922 18.75 45.208C18.8558 45.3026 18.9479 45.4114 19.0234 45.5322C20.3476 47.0832 21.8219 48.5275 23.333 49.8398C25.8019 51.9839 28.2782 53.7024 30.1406 54.8857C31.0701 55.4763 31.8426 55.9317 32.3799 56.2373C32.4316 56.2667 32.482 56.2937 32.5293 56.3203C32.5738 56.2964 32.6215 56.2724 32.6699 56.2461C33.2062 55.9552 33.9784 55.5211 34.9062 54.957C36.7653 53.8268 39.2368 52.1821 41.7002 50.1211C46.7146 45.9258 51.3121 40.3268 51.3125 34.0762C51.3125 31.1815 50.391 28.6756 48.8408 26.916C47.4022 25.2832 45.367 24.2254 42.8232 24.1035L42.3076 24.0918H42.3047ZM10.8447 7.47852C8.4572 7.47864 6.76432 9.04272 6.09277 11.5303C6.09062 11.5382 6.08723 11.5458 6.08496 11.5537C5.80686 12.5964 5.51797 14.5891 5.24707 17.1758C4.97799 19.7451 4.73606 22.7976 4.53223 25.8652C4.12381 32.0117 3.875 38.149 3.875 40.5186V40.9932C3.87501 41.4202 4.22137 41.7666 4.64844 41.7666H4.79785C6.60641 41.7667 8.41381 42.3795 9.81934 43.6133L9.93848 43.7109C10.5575 44.1875 11.5689 44.5082 12.9893 44.6738C13.5315 44.737 14.0952 44.7731 14.6719 44.7949C12.3386 41.4126 10.6877 37.5238 10.6875 33.2695C10.6875 33.2446 10.6874 33.2192 10.6875 33.1943L10.6807 13.4033C10.6805 13.0055 10.8389 12.6242 11.1201 12.3428C11.4014 12.0614 11.7828 11.9024 12.1807 11.9023H17.0156V9.83887C17.0156 8.53531 15.9588 7.47852 14.6553 7.47852H10.8447ZM50.3447 7.47852C49.0412 7.47852 47.9844 8.53531 47.9844 9.83887V11.9023H52.8193C53.2171 11.9024 53.5986 12.0614 53.8799 12.3428C54.161 12.6242 54.3195 13.0055 54.3193 13.4033L54.3115 34.0098C54.3116 34.0317 54.3125 34.0542 54.3125 34.0762C54.3123 38.029 52.837 41.6352 50.707 44.792C51.2269 44.7704 51.7293 44.7361 52.2119 44.6758C53.586 44.5041 54.556 44.1617 55.1807 43.6133L55.4482 43.3887C56.8117 42.3045 58.5074 41.7666 60.2031 41.7666H60.3516C60.7786 41.7666 61.125 41.4202 61.125 40.9932V40.5186C61.125 38.149 60.8762 32.0117 60.4678 25.8652C60.2639 22.7976 60.022 19.7451 59.7529 17.1758C59.482 14.5889 59.1922 12.5963 58.9141 11.5537C58.9118 11.5459 58.9094 11.5381 58.9072 11.5303C58.2356 9.04267 56.5428 7.47864 54.1553 7.47852H50.3447Z" fill="#23B24B"/>
</g>
<defs>
<clipPath id="clip0_8072_652">
<rect width="64" height="64" fill="white" transform="translate(0.5)"/>
</clipPath>
</defs>
</svg>
