<svg width="65" height="64" viewBox="0 0 65 64" fill="none" xmlns="http://www.w3.org/2000/svg">
<path d="M42.2266 38C43.1799 38.0001 43.9531 38.7732 43.9531 39.7266V43.5469H47.7734C48.7268 43.5469 49.4999 44.3201 49.5 45.2734C49.5 46.2269 48.7268 47 47.7734 47H42.2266C41.2732 47 40.5 46.2269 40.5 45.2734V39.7266C40.5 38.7731 41.2732 38 42.2266 38Z" fill="#23B24B"/>
<path fill-rule="evenodd" clip-rule="evenodd" d="M48.5986 3C49.5207 3.0002 50.2686 3.76092 50.2686 4.69922V8.45996H59.3301C60.2523 8.45996 60.9999 9.22085 61 10.1592V42.9199C61 52.889 53.0296 60.9998 43.2324 61H5.66992C4.74768 61 4 60.2392 4 59.3008V10.1592C4.0001 9.22085 4.74774 8.45996 5.66992 8.45996H14.7324V4.69922C14.7324 3.7608 15.4801 3 16.4023 3C17.3244 3.00021 18.0723 3.76093 18.0723 4.69922V8.45996H25.4639V4.69922C25.4639 3.76086 26.2116 3.00011 27.1338 3C28.056 3 28.8037 3.7608 28.8037 4.69922V8.45996H36.1963V4.69922C36.1963 3.76081 36.944 3.00001 37.8662 3C38.7885 3 39.5361 3.7608 39.5361 4.69922V8.45996H46.9287V4.69922C46.9287 3.7608 47.6764 3 48.5986 3ZM7.33984 11.8584V57.6016H32.874C28.3897 54.3165 25.464 48.96 25.4639 42.9209C25.4639 32.9517 33.4351 24.8408 43.2324 24.8408C49.1676 24.841 54.4317 27.8179 57.6602 32.3809V11.8584H50.2686V15.6191C50.2686 16.5574 49.5207 17.3181 48.5986 17.3184C47.6764 17.3184 46.9287 16.5576 46.9287 15.6191V11.8584H39.5361V15.6191C39.5361 16.5575 38.7884 17.3183 37.8662 17.3184C36.944 17.3184 36.1963 16.5576 36.1963 15.6191V11.8584H28.8037V15.6191C28.8037 16.5576 28.056 17.3184 27.1338 17.3184C26.2116 17.3183 25.4639 16.5575 25.4639 15.6191V11.8584H18.0723V15.6191C18.0723 16.5574 17.3244 17.3181 16.4023 17.3184C15.4801 17.3184 14.7324 16.5576 14.7324 15.6191V11.8584H7.33984ZM43.2324 28.2393C35.2768 28.2393 28.8039 34.8248 28.8037 42.9199C28.8037 51.0152 35.2768 57.6016 43.2324 57.6016C51.188 57.6013 57.6602 51.015 57.6602 42.9199C57.66 34.825 51.1879 28.2394 43.2324 28.2393Z" fill="#23B24B"/>
</svg>
