<svg width="125" height="124" viewBox="0 0 125 124" fill="none" xmlns="http://www.w3.org/2000/svg">
<path fill-rule="evenodd" clip-rule="evenodd" d="M30.4883 60.9033C30.494 60.9037 30.4987 60.904 30.502 60.9043H30.5C30.5248 60.9052 30.5519 60.9059 30.5801 60.9082C30.5955 60.9095 30.6089 60.9107 30.6221 60.9121H30.624L30.7461 60.9297L30.8154 60.9434L30.8164 60.9443L30.9102 60.9668C30.9305 60.9725 30.9486 60.9781 30.959 60.9814L30.9775 60.9873L30.9785 60.9883L31.0479 61.0117L31.1113 61.0361L31.1846 61.0693L31.3057 61.1318L31.3594 61.1631L31.4141 61.1982L31.4775 61.2422L31.4785 61.2432L31.5293 61.2812L31.5957 61.3369L31.6914 61.4258C31.7222 61.4567 31.7521 61.4894 31.7812 61.5234L31.8291 61.5811L31.8672 61.6318L31.9131 61.6992L31.9492 61.7539L31.9854 61.8164C31.9942 61.8322 32.0095 61.8595 32.0254 61.8916L32.0947 62.0264L32.2539 62.3125C33.0831 63.7348 34.8582 65.7275 39.3369 67.4053L39.8213 67.5811L40.1064 67.6875L40.1182 67.6924L40.4111 67.8115C43.4208 69.0947 45.6984 71.7526 46.3711 75.0273L46.4395 75.3926C46.7465 77.2252 46.5544 79.1624 45.7842 80.9844L45.7812 80.9912L45.7061 81.165L45.7031 81.1719C45.3715 81.9144 44.9581 82.5964 44.4824 83.2158L47.0117 84.3525L47.1738 84.4355C47.9017 84.8556 48.2357 85.7337 47.9707 86.5312L47.9053 86.7012C47.5031 87.5961 46.4507 87.9957 45.5557 87.5938L41.5518 85.7959C39.0346 87.2627 35.9185 87.6327 33.0146 86.5781C33.0093 86.5762 33.0043 86.5724 32.999 86.5703L32.9609 86.5576C32.948 86.5529 32.9355 86.5474 32.9229 86.542C26.0556 83.602 22.8015 75.2282 25.9658 68.2842L28.8115 61.9502L28.8369 61.8975C28.838 61.8953 28.8392 61.8928 28.8398 61.8916L28.8604 61.8496C28.9071 61.761 28.9606 61.6787 29.0186 61.6025L29.0361 61.5801L29.1211 61.4795C29.1241 61.4762 29.1277 61.4722 29.1318 61.4678L29.2402 61.3604C29.2777 61.3264 29.3165 61.2941 29.3564 61.2637L29.3818 61.2461C29.3842 61.2444 29.3865 61.2421 29.3877 61.2412L29.3896 61.2402L29.3906 61.2393L29.4795 61.1787C29.489 61.1726 29.5016 61.1647 29.5156 61.1562L29.6152 61.1006C29.6217 61.0971 29.6347 61.0902 29.6494 61.083L29.7822 61.0244L29.7988 61.0186L29.8027 61.0166L29.9248 60.9756L29.9541 60.9668C29.9764 60.9607 29.9496 60.968 29.9648 60.9639L30.0732 60.9385L30.0811 60.9365C30.0877 60.9351 30.1011 60.9326 30.1172 60.9297L30.251 60.9102C30.2972 60.9053 30.3448 60.9024 30.3936 60.9014H30.4385L30.4883 60.9033ZM29.0068 70.2188C27.0104 75.2555 29.44 81.1516 34.2725 83.2529C35.3415 83.6325 36.4564 83.7143 37.5205 83.5361C33.071 80.3696 30.0132 75.5906 29.0068 70.2188ZM32.2412 67.5645C32.6561 73.4589 36.0141 78.7491 41.1533 81.6396C41.6836 81.0975 42.1305 80.4559 42.458 79.7227L42.5674 79.4648C43.0197 78.3244 43.1275 77.1197 42.9336 75.9717L42.8906 75.7422C42.4502 73.5979 40.9131 71.8212 38.8359 71.0059L38.6221 70.9258C35.8085 69.9281 33.7557 68.7682 32.2412 67.5645ZM30.373 60.9043C30.3734 60.9043 30.3754 60.9035 30.3779 60.9033H30.375L30.373 60.9043Z" fill="white"/>
<path fill-rule="evenodd" clip-rule="evenodd" d="M70.7568 60.9111C70.8053 60.9165 70.8518 60.9242 70.8965 60.9326C70.9111 60.9353 70.9228 60.9378 70.9307 60.9395L70.9453 60.9424L71.0537 60.9697L71.0518 60.9688C71.0525 60.9689 71.0541 60.9693 71.0557 60.9697L71.1016 60.9834L71.2402 61.0342L71.2695 61.0459C71.2729 61.0474 71.2763 61.0489 71.2783 61.0498C71.2804 61.0507 71.2813 61.0513 71.2822 61.0518L71.3857 61.1016L71.4238 61.1211L71.5518 61.1982L71.5527 61.1992L71.584 61.2207C71.5854 61.2217 71.5871 61.223 71.5879 61.2236L71.6768 61.29L71.6777 61.291L71.7041 61.3135C71.7066 61.3156 71.7101 61.3176 71.7109 61.3184L71.7119 61.3193L71.8037 61.4023L71.7871 61.3867L71.7861 61.3857C71.7882 61.3875 71.7936 61.3927 71.7998 61.3984L71.8281 61.4258L71.9307 61.5381L71.9443 61.5557C71.9478 61.56 71.9508 61.5637 71.9521 61.5654L71.9541 61.5674C71.9537 61.5669 71.9517 61.5645 71.9492 61.5615C71.9746 61.5929 71.9999 61.627 72.0244 61.6621C72.0322 61.6732 72.0398 61.6832 72.0439 61.6895C72.046 61.6925 72.0476 61.6954 72.0488 61.6973L72.0518 61.7012L72.1074 61.792L72.1611 61.8916L72.166 61.9023L72.1895 61.9502L72.1963 61.9668C72.1974 61.9692 72.198 61.972 72.1992 61.9746L75.0381 68.293L75.041 68.3008C78.1929 75.2414 74.94 83.6041 68.0781 86.542L68.0762 86.543C68.0523 86.5531 68.0302 86.5599 68.0146 86.5654C68.0051 86.5694 67.9961 86.5746 67.9863 86.5781C65.0821 87.6329 61.9648 87.2632 59.4473 85.7959L55.4443 87.5938L55.4092 87.6084L55.3115 87.6465C55.2999 87.651 55.2882 87.6552 55.2764 87.6592C54.4746 87.9258 53.5909 87.5886 53.1729 86.8535L53.0957 86.7012C52.7186 85.8616 53.0467 84.8851 53.8271 84.4346L53.8613 84.416L53.9551 84.3682L53.9883 84.3525L56.5166 83.2158C56.0899 82.6601 55.7134 82.0539 55.4014 81.3984L55.3975 81.3896L55.3008 81.1797L55.2969 81.1719C54.4051 79.175 54.2181 77.0286 54.6289 75.0273L54.7021 74.7021C55.4799 71.4728 57.8298 68.8851 60.8828 67.6924L61.1904 67.5771L61.6797 67.3984L62.1328 67.2246C66.7116 65.4102 68.2823 63.272 68.9805 61.8809L69.002 61.8408C69.0045 61.8364 69.0064 61.8325 69.0078 61.8301C69.0092 61.8277 69.0105 61.8256 69.0107 61.8252L69.0264 61.7959C69.0388 61.7742 69.0517 61.7523 69.0654 61.7305L69.1045 61.6709C69.1292 61.635 69.1578 61.5966 69.1895 61.5576L69.2012 61.543L69.2881 61.4463L69.3311 61.4033L69.4033 61.3369L69.4043 61.3359C69.405 61.3353 69.4087 61.3332 69.4111 61.3311C69.4167 61.3262 69.4273 61.3165 69.4404 61.3057L69.5547 61.2188L69.5918 61.1943C69.5958 61.1918 69.5993 61.189 69.6016 61.1875C69.6041 61.1858 69.6055 61.1852 69.6064 61.1846L69.6816 61.1387L69.7402 61.1064L69.8496 61.0537L69.8887 61.0371L70.0107 60.9912L70.0635 60.9746L70.166 60.9482L70.168 60.9473C70.1689 60.947 70.1741 60.9462 70.1777 60.9453C70.186 60.9433 70.2017 60.9393 70.2207 60.9355L70.375 60.9121L70.3955 60.9102L70.4873 60.9053H70.4893L70.4902 60.9043C70.4917 60.9043 70.4933 60.9044 70.4951 60.9043C70.5119 60.9036 70.5279 60.9026 70.543 60.9023C70.5336 60.9025 70.525 60.902 70.5176 60.9023C70.5295 60.9016 70.5449 60.9014 70.5625 60.9014H70.6064L70.7568 60.9111ZM71.9932 70.2178C70.9871 75.5901 67.9295 80.3694 63.4795 83.5361C64.5433 83.7143 65.6577 83.6322 66.7266 83.2529C71.5602 81.1519 73.9905 75.2551 71.9932 70.2178ZM68.7559 67.5654C67.3434 68.6876 65.4635 69.7736 62.9346 70.7236L62.9277 70.7256L62.3848 70.9238L62.3779 70.9268C60.2619 71.6772 58.6677 73.4122 58.1562 75.5352L58.1094 75.7412L58.1104 75.7422C57.8436 77.0414 57.9646 78.4248 58.5381 79.7139L58.6104 79.8701L58.7666 80.1777C59.0628 80.7249 59.429 81.2135 59.8467 81.6406C64.986 78.7504 68.3406 73.4598 68.7559 67.5654ZM70.6182 60.9033C70.6242 60.9037 70.6296 60.904 70.6328 60.9043H70.6348C70.6325 60.9041 70.6287 60.9037 70.624 60.9033C70.6195 60.903 70.6129 60.9027 70.6055 60.9023C70.6103 60.9026 70.6146 60.9031 70.6182 60.9033Z" fill="white"/>
<path fill-rule="evenodd" clip-rule="evenodd" d="M37.4668 45.1729C40.099 38.1394 48.1056 34.523 54.9688 37.0596L55.2949 37.1855L55.333 37.2012L55.3633 37.2158C55.3707 37.219 55.3784 37.2212 55.3857 37.2246C58.1853 38.5323 60.1275 40.9979 60.8701 43.8154L64.9727 45.375L65.1387 45.4482C65.8902 45.8248 66.2755 46.6822 66.0576 47.4941L66.002 47.667C65.6752 48.5263 64.7528 48.9861 63.8828 48.7529L63.71 48.6963L61.1182 47.7109C61.0272 48.406 60.8642 49.1015 60.6211 49.7861L60.6182 49.7939L60.5381 50.0107L60.5352 50.0195C59.7782 51.9983 58.4545 53.6092 56.8213 54.7305L56.8164 54.7344L56.6689 54.833L56.6631 54.8369C53.7818 56.7364 50.1555 56.9616 47.0537 55.6025L47.043 55.5977L46.7656 55.4707L46.7549 55.4658C41.9856 53.1937 39.1613 53.4218 37.5312 53.8887L37.2207 53.9844C37.1987 53.9917 37.1803 53.9976 37.1719 54C37.1697 54.0006 37.1674 54.0006 37.166 54.001C37.1648 54.0013 37.1637 54.0008 37.1631 54.001C37.1532 54.0039 37.1163 54.0163 37.0791 54.0254C37.0583 54.0304 37.0392 54.0342 37.0293 54.0361C37.0246 54.0371 37.0195 54.0377 37.0176 54.0381H37.0146L37.0156 54.0391C36.9937 54.0435 36.9642 54.0487 36.9316 54.0537L36.876 54.0615C36.8451 54.0653 36.8079 54.0698 36.7666 54.0723H36.7627C36.7577 54.0726 36.7459 54.0727 36.7324 54.0732L36.7334 54.0742H36.5889C36.5734 54.0736 36.5603 54.0727 36.5537 54.0723L36.5459 54.0713C36.5166 54.0694 36.4821 54.067 36.4453 54.0625C36.4266 54.0602 36.4095 54.0578 36.3955 54.0557L36.292 54.0371C36.2928 54.0373 36.2931 54.0373 36.292 54.0371C36.2913 54.037 36.2913 54.0364 36.29 54.0361C36.289 54.0359 36.2877 54.0355 36.2861 54.0352L36.249 54.0273C36.2127 54.0187 36.1802 54.01 36.1562 54.0029L36.0469 53.9658C36.0436 53.9646 36.0116 53.9529 35.9814 53.9404L35.9238 53.916C35.8946 53.9027 35.8665 53.8884 35.8389 53.874C35.8278 53.8682 35.8105 53.859 35.792 53.8486L35.6973 53.792C35.6879 53.786 35.7011 53.7948 35.6846 53.7842C35.6776 53.7797 35.6659 53.772 35.6523 53.7627L35.541 53.6787L35.54 53.6777C35.539 53.6769 35.5321 53.6716 35.5254 53.666L35.4268 53.5781L35.4248 53.5762L35.4072 53.5596C35.4035 53.5558 35.4005 53.5519 35.3975 53.5488L35.3809 53.5312L35.376 53.5273C35.3429 53.4927 35.3121 53.4574 35.2832 53.4219L35.2021 53.3145L35.1768 53.2773C35.1549 53.2442 35.1359 53.2129 35.1201 53.1855C35.1159 53.1782 35.1229 53.1895 35.1133 53.1729L35.0928 53.1367C35.0822 53.117 35.0737 53.0999 35.0684 53.0889C35.0657 53.0833 35.0631 53.0775 35.0615 53.0742L35.0586 53.0674L35.0156 52.9727C34.9999 52.9342 34.9877 52.899 34.9785 52.8721C34.9775 52.869 34.971 52.8522 34.9658 52.8359C34.956 52.8051 34.9472 52.7714 34.9385 52.7373L34.9375 52.7363C34.9371 52.7349 34.9373 52.7334 34.9365 52.7305C34.9359 52.7279 34.9347 52.724 34.9336 52.7197C34.9315 52.7113 34.9281 52.6985 34.9248 52.6836L34.8906 52.4668C34.8838 52.3942 34.8818 52.3213 34.8838 52.249L34.8848 52.2139L34.9102 51.9902C34.9232 51.9164 34.9413 51.8429 34.9639 51.7705C34.9677 51.7582 34.9707 51.7478 34.9727 51.7422C34.9736 51.7395 34.9752 51.7364 34.9756 51.7354C34.976 51.7342 34.9756 51.7334 34.9756 51.7334L34.9766 51.7314C34.9771 51.7298 34.9791 51.7248 34.9805 51.7207C34.9837 51.7107 34.9903 51.6909 34.999 51.668L37.4668 45.1729ZM57.6484 46.4707C51.9711 44.8811 45.8576 46.2494 41.3965 50.123C43.3181 50.3429 45.5901 50.9743 48.2842 52.2578L48.4805 52.3477L48.8682 52.5029C50.8156 53.2178 52.98 53.0015 54.6943 51.877L54.9121 51.7285C55.9266 51.0036 56.7419 49.9888 57.2158 48.75L57.2754 48.5889C57.5225 47.8897 57.6409 47.1754 57.6484 46.4707ZM53.9258 40.4658C49.0227 38.5339 43.1347 40.9851 40.9844 45.958C45.494 42.8716 51.0351 41.6549 56.4199 42.5615C55.7939 41.6839 54.9491 40.9532 53.9258 40.4658Z" fill="white"/>
<path fill-rule="evenodd" clip-rule="evenodd" d="M96.3682 1.64355C97.3768 1.74582 98.1641 2.59716 98.1641 3.63281V8.39941L121.385 14.6221C122.385 14.8901 123.004 15.8705 122.842 16.8711L122.799 17.0713L119.038 31.1074C118.972 31.3532 118.86 31.5844 118.708 31.7881L111.126 41.9209L95.7324 99.3701L98.0215 105.093C98.116 105.329 98.1641 105.581 98.1641 105.836V120.367C98.1641 121.472 97.2686 122.367 96.1641 122.367H4.13281C3.02824 122.367 2.13281 121.472 2.13281 120.367V105.836C2.13281 105.581 2.18089 105.329 2.27539 105.093L6.97656 93.3398V30.6602L2.27539 18.9072C2.18089 18.671 2.13281 18.4185 2.13281 18.1641V3.63281L2.14355 3.42871C2.24582 2.42004 3.09716 1.63281 4.13281 1.63281H96.1641L96.3682 1.64355ZM6.13281 118.367H94.1641V107.836H6.13281V118.367ZM10.834 29.5303L10.8955 29.7109C10.949 29.8934 10.9766 30.0827 10.9766 30.2734V93.7266C10.9766 93.981 10.9285 94.2335 10.834 94.4697L7.08789 103.836H93.209L89.4629 94.4697C89.3684 94.2335 89.3203 93.981 89.3203 93.7266V30.2734C89.3203 30.2098 89.3231 30.1462 89.3291 30.083C89.3348 30.0231 89.3434 29.9635 89.3545 29.9043C89.356 29.8961 89.3577 29.888 89.3594 29.8799C89.3683 29.8352 89.3796 29.7911 89.3916 29.7471C89.3976 29.7249 89.4034 29.7026 89.4102 29.6807C89.4259 29.63 89.4431 29.5797 89.4629 29.5303L93.209 20.1641H7.08789L10.834 29.5303ZM93.3203 30.6602V92.917L107.361 40.5156L107.419 40.334C107.485 40.1558 107.577 39.9877 107.691 39.835L113.734 31.7568L94.8994 26.71L93.3203 30.6602ZM98.1641 18.1641C98.1641 18.4185 98.116 18.671 98.0215 18.9072L96.3955 22.9697L115.691 28.1396L118.418 17.9678L98.1641 12.54V18.1641ZM6.13281 16.1641H94.1641V5.63281H6.13281V16.1641Z" fill="white"/>
</svg>
