<svg width="65" height="64" viewBox="0 0 65 64" fill="none" xmlns="http://www.w3.org/2000/svg">
<path d="M46.6669 36.5342C47.4278 36.5343 48.0811 36.9882 48.3749 37.6396C49.0852 37.7175 49.7196 38.1991 49.9549 38.9229C50.1904 39.6472 49.9602 40.41 49.4315 40.8906C49.5773 41.5906 49.3153 42.3435 48.6991 42.791C48.3664 43.0326 47.9805 43.1484 47.5985 43.1484C47.2715 43.1474 46.9503 43.0615 46.6669 42.8984C46.3815 43.0617 46.0595 43.1484 45.7342 43.1484C45.3389 43.1487 44.9532 43.0238 44.6337 42.791C44.0177 42.3435 43.7555 41.5909 43.9012 40.8906C43.3721 40.41 43.1414 39.6471 43.3768 38.9229C43.6123 38.1988 44.2472 37.7173 44.9579 37.6396C45.2516 36.9881 45.9057 36.5342 46.6669 36.5342Z" fill="#23B24B"/>
<path fill-rule="evenodd" clip-rule="evenodd" d="M49.9432 6C50.1762 6.00004 50.407 6.04873 50.62 6.14258C50.8329 6.23647 51.0241 6.37334 51.1805 6.54492C51.3371 6.7166 51.4551 6.91964 51.5282 7.13965C51.6012 7.35949 51.6272 7.59187 51.6044 7.82227L50.9589 14.3398C52.9475 13.7652 55.0678 13.6006 56.8378 13.6006C58.1972 13.6006 59.1316 13.7017 59.1708 13.7061C59.5093 13.7436 59.8284 13.8836 60.0848 14.1064C60.3412 14.3293 60.5227 14.6247 60.6053 14.9531C60.6855 15.2715 62.5106 22.806 57.5692 27.7168C56.2689 29.0094 54.7831 29.8598 53.287 30.4092C57.4441 33.0819 60.201 37.73 60.201 43.0068C60.201 51.274 53.4346 58 45.1171 58H10.496C9.63726 57.9999 8.9191 57.3525 8.83483 56.5029L5.26842 20.5361L5.26745 20.5205L4.00866 7.82227C3.9858 7.59196 4.01094 7.35943 4.08385 7.13965C4.15693 6.91962 4.27594 6.71662 4.43248 6.54492C4.58896 6.37332 4.78002 6.23644 4.99303 6.14258C5.20611 6.04872 5.43673 5.99997 5.66979 6H49.9432ZM8.77135 22.0186L12.0096 54.6807H35.663C32.2319 51.9301 30.0321 47.7191 30.0321 43.0068C30.0321 35.3785 35.7939 29.0626 43.2186 28.1318C43.0589 26.6427 42.9948 24.3642 43.6092 22.0186H8.77135ZM45.1171 31.333C38.641 31.333 33.372 36.57 33.3719 43.0068C33.3719 49.4437 38.641 54.6807 45.1171 54.6807C51.5931 54.6806 56.8612 49.4438 56.8612 43.0068C56.8612 36.5699 51.593 31.3331 45.1171 31.333ZM56.8378 16.9199C53.2023 16.9199 50.3133 17.7188 48.912 19.1113C46.2249 21.7819 46.3315 25.9794 46.5653 27.9668C46.9011 27.9927 47.2996 28.0127 47.7421 28.0127C49.9349 28.0127 53.0107 27.5534 55.2079 25.3691C57.8308 22.7621 57.7809 18.8652 57.5575 16.9307C57.3177 16.9234 57.0776 16.9198 56.8378 16.9199ZM7.51256 9.31934L8.44225 18.6992H45.0126C45.4474 17.9971 45.9633 17.3479 46.5497 16.7646C46.8265 16.4895 47.1244 16.238 47.4374 16.0068L48.1005 9.31934H7.51256Z" fill="#23B24B"/>
</svg>
