<svg width="64" height="64" viewBox="0 0 64 64" fill="none" xmlns="http://www.w3.org/2000/svg">
<path d="M52.7334 34.2872H49.7631C51.6275 33.0928 53.2949 31.6334 54.7002 29.9332C58.2256 25.6699 60.0884 20.4757 60.0884 14.9132V9.87629C60.0884 8.83941 59.2475 7.99854 58.2109 7.99854H53.1744C48.3335 7.99854 43.7094 9.45904 39.8286 12.124C36.146 9.45454 31.6734 7.99854 27.0791 7.99854H23.9194C22.8827 7.99854 22.0419 8.83941 22.0419 9.87641V13.0357C22.0411 14.7767 22.2479 16.5116 22.6577 18.2037C22.3909 18.4251 22.1344 18.6587 21.8891 18.9038L3.29975 37.4927C1.17188 39.621 0 42.4502 0 45.4594C0 48.4687 1.17188 51.2983 3.29975 53.4263C5.42775 55.5542 8.25725 56.726 11.2666 56.726C14.0225 56.726 16.626 55.7403 18.6796 53.9404C20.6747 55.73 23.3096 56.8204 26.1944 56.8204H52.7334C58.9459 56.8204 64 51.7662 64 45.5537C64 39.3413 58.9458 34.2872 52.7334 34.2872ZM56.333 11.7539V14.913C56.333 19.5918 54.7676 23.958 51.8061 27.54C48.2611 31.8275 42.6665 34.2867 36.4556 34.2872L44.5166 26.226C45.25 25.4932 45.25 24.3042 44.5166 23.5708C43.7832 22.8374 42.5941 22.8374 41.8609 23.5708L33.3209 32.1108C33.1952 27.4317 34.7265 22.8452 37.7324 19.1274C41.5205 14.4414 47.1489 11.7539 53.1744 11.7539H56.333ZM25.7974 11.7539H27.0791C30.5429 11.7539 33.9214 12.7539 36.7974 14.6002C36.0918 15.2811 35.4286 16.0046 34.8115 16.7667C34.6841 16.9245 34.5587 17.084 34.4355 17.2452L33.2495 16.0595C32.5166 15.3262 31.3276 15.3262 30.5942 16.0595C29.8609 16.7929 29.8609 17.982 30.5942 18.7153L32.3505 20.4717C31.556 21.9514 30.9223 23.5121 30.4605 25.1269C27.4678 21.8394 25.7974 17.5732 25.7974 13.0362V11.7539ZM24.0054 22.0987C25.3004 24.9278 27.209 27.4702 29.6445 29.5552C29.5094 31.1309 29.5328 32.7161 29.7144 34.2872H26.1944C24.7957 34.2857 23.4092 34.5462 22.1065 35.0552L16.5777 29.5259L24.0054 22.0987ZM5.95563 50.7705C4.53662 49.352 3.75537 47.4658 3.75537 45.4595C3.75537 43.4533 4.53662 41.5669 5.95563 40.1484L13.9224 32.1817L18.8002 37.06C16.4287 39.1269 14.9277 42.1684 14.9277 45.5538C14.9277 47.5288 15.439 49.3858 16.3355 51.0014C14.9478 52.2734 13.1606 52.9707 11.2666 52.9707C9.26025 52.9707 7.37413 52.1894 5.95563 50.7705ZM18.6831 45.5537C18.6831 41.4122 22.0527 38.0429 26.1944 38.0429H37.4609V53.0649H26.1944C22.0527 53.0649 18.6831 49.6953 18.6831 45.5537ZM52.7334 53.0649H41.2163V38.0429H52.7334C56.875 38.0429 60.2446 41.4122 60.2446 45.5537C60.2446 49.6953 56.875 53.0649 52.7334 53.0649Z" fill="#23B24B"/>
</svg>
