<svg width="56" height="56" viewBox="0 0 56 56" fill="none" xmlns="http://www.w3.org/2000/svg">
<g clip-path="url(#clip0_8072_601)">
<path fill-rule="evenodd" clip-rule="evenodd" d="M47.6562 47.3281H8.34375V20.7031H47.6562V47.3281ZM11.3438 44.3281H17.4219V35.5156H11.3438V44.3281ZM20.4219 44.3281H26.5V35.5156H20.4219V44.3281ZM29.5 44.3281H35.5781V35.5156H29.5V44.3281ZM38.5781 44.3281H44.6562V35.5156H38.5781V44.3281ZM11.3438 32.5156H17.4219V23.7031H11.3438V32.5156ZM20.4219 32.5156H26.5V23.7031H20.4219V32.5156ZM29.5 32.5156H35.5781V23.7031H29.5V32.5156ZM38.5781 32.5156H44.6562V23.7031H38.5781V32.5156Z" fill="white"/>
<path fill-rule="evenodd" clip-rule="evenodd" d="M42.6875 0.140564C45.3282 0.140564 47.4688 2.28115 47.4688 4.92181V6.59369H55.8594V48.4433C55.8594 52.5388 52.5388 55.8593 48.4434 55.8593H7.55664C3.46118 55.8593 0.140625 52.5388 0.140625 48.4433V6.59369H8.53125V4.92181C8.53125 2.28112 10.672 0.140564 13.3125 0.140564C15.953 0.140564 18.0938 2.28112 18.0938 4.92181V6.59369H23.2188V4.92181C23.2188 2.28115 25.3593 0.140564 28 0.140564C30.6407 0.140564 32.7812 2.28115 32.7812 4.92181V6.59369H37.9062V4.92181C37.9062 2.28115 40.0468 0.140564 42.6875 0.140564ZM3.14062 48.4433C3.14062 50.8819 5.11804 52.8593 7.55664 52.8593H48.4434C50.882 52.8593 52.8594 50.8819 52.8594 48.4433V9.59369H47.4688V11.2656C47.4688 13.9063 45.328 16.0468 42.6875 16.0468C40.0468 16.0468 37.9062 13.9062 37.9062 11.2656V9.59369H32.7812V11.2656C32.7812 13.9062 30.6407 16.0468 28 16.0468C25.3593 16.0468 23.2188 13.9062 23.2188 11.2656V9.59369H18.0938V11.2656C18.0938 13.9063 15.953 16.0468 13.3125 16.0468C10.672 16.0468 8.53125 13.9063 8.53125 11.2656V9.59369H3.14062V48.4433ZM13.3125 3.14056C12.3288 3.14056 11.5312 3.93804 11.5312 4.92181V11.2656C11.5312 12.2493 12.3288 13.0468 13.3125 13.0468C14.2962 13.0468 15.0938 12.2493 15.0938 11.2656V4.92181C15.0938 3.93804 14.2962 3.14056 13.3125 3.14056ZM28 3.14056C27.0162 3.14056 26.2188 3.93801 26.2188 4.92181V11.2656C26.2188 12.2494 27.0162 13.0468 28 13.0468C28.9838 13.0468 29.7812 12.2494 29.7812 11.2656V4.92181C29.7812 3.93801 28.9838 3.14056 28 3.14056ZM42.6875 3.14056C41.7037 3.14056 40.9062 3.93801 40.9062 4.92181V11.2656C40.9062 12.2494 41.7037 13.0468 42.6875 13.0468C43.6712 13.0468 44.4688 12.2493 44.4688 11.2656V4.92181C44.4688 3.93801 43.6713 3.14056 42.6875 3.14056Z" fill="white"/>
</g>
<defs>
<clipPath id="clip0_8072_601">
<rect width="56" height="56" fill="white"/>
</clipPath>
</defs>
</svg>
