<svg width="60" height="60" viewBox="0 0 60 60" fill="none" xmlns="http://www.w3.org/2000/svg">
<g clip-path="url(#clip0_8072_603)">
<path fill-rule="evenodd" clip-rule="evenodd" d="M30.0021 23.8495C33.3936 23.8495 36.1534 26.6083 36.1535 29.9999C36.1535 33.3915 33.3936 36.1513 30.0021 36.1513C26.6106 36.1512 23.8517 33.3914 23.8517 29.9999C23.8517 26.6084 26.6107 23.8496 30.0021 23.8495ZM30.0021 27.3652C28.5492 27.3653 27.3674 28.5469 27.3673 29.9999C27.3673 31.4529 28.5492 32.6356 30.0021 32.6357C31.4551 32.6357 32.6378 31.4529 32.6378 29.9999C32.6378 28.5468 31.4551 27.3652 30.0021 27.3652Z" fill="white"/>
<path fill-rule="evenodd" clip-rule="evenodd" d="M30.0021 -6.10352e-05C34.0788 9.18611e-05 37.7889 3.30942 40.4484 9.3183C40.6649 9.80735 40.8722 10.3111 41.0714 10.8271C41.6178 10.7416 42.1577 10.6693 42.6896 10.6122C49.223 9.91065 53.9442 11.4693 55.9826 14.9999C58.021 18.5306 57.0101 23.3982 53.1359 28.706C52.8206 29.138 52.4881 29.5696 52.1408 29.9999C52.4881 30.4304 52.8206 30.8619 53.1359 31.2939C57.0101 36.6016 58.021 41.4694 55.9826 44.9999C54.2638 47.9772 50.6375 49.5516 45.6251 49.5517C44.6935 49.5517 43.7137 49.4974 42.6896 49.3876C42.1577 49.3306 41.6178 49.2583 41.0714 49.1728C40.8722 49.6888 40.6649 50.1925 40.4484 50.6816C37.7889 56.6905 34.0788 59.9998 30.0021 59.9999C25.9254 59.9999 22.2154 56.6906 19.5558 50.6816C19.3393 50.1925 19.132 49.6887 18.9328 49.1728C18.3863 49.2582 17.8455 49.3306 17.3136 49.3876C16.2903 49.4974 15.3102 49.5517 14.379 49.5517C9.36611 49.5517 5.73967 47.9773 4.02065 44.9999C1.98232 41.4694 2.99427 36.6016 6.8683 31.2939C7.18358 30.8619 7.51616 30.4304 7.86342 29.9999C7.51616 29.5696 7.18358 29.138 6.8683 28.706C2.99427 23.3983 1.98232 18.5305 4.02065 14.9999C6.05884 11.4694 10.7804 9.91111 17.3136 10.6122C17.8455 10.6693 18.3863 10.7415 18.9328 10.8271C19.1319 10.3111 19.3393 9.80736 19.5558 9.3183C22.2154 3.30928 25.9254 -6.10352e-05 30.0021 -6.10352e-05ZM30.0021 45.9013C27.4325 46.9842 24.8853 47.8437 22.4308 48.457C22.5415 48.7281 22.6545 48.9965 22.7706 49.2587C24.803 53.8506 27.4389 56.4843 30.0021 56.4843C32.5652 56.4841 35.2012 53.8504 37.2335 49.2587C37.3496 48.9965 37.4617 48.7281 37.5724 48.457C35.1181 47.8438 32.5714 46.9841 30.0021 45.9013ZM9.70717 33.3671C6.7468 37.423 5.78408 41.0223 7.06557 43.2421C8.34723 45.4619 11.9456 46.4273 16.9386 45.8915C17.2237 45.861 17.5127 45.8248 17.8029 45.7851C17.1068 43.3529 16.5785 40.7169 16.2316 37.9501C14.0089 36.2663 11.9899 34.4909 10.2316 32.6718C10.0521 32.9033 9.87615 33.1354 9.70717 33.3671ZM49.7716 32.6718C48.0134 34.4907 45.9951 36.2663 43.7726 37.9501C43.4256 40.7168 42.8974 43.353 42.2013 45.7851C42.4913 45.8248 42.7796 45.861 43.0646 45.8915C48.0577 46.4274 51.6559 45.462 52.9376 43.2421C54.2193 41.0223 53.2565 37.4231 50.296 33.3671C50.1269 33.1354 49.951 32.9031 49.7716 32.6718ZM20.2189 40.7304C20.5073 42.2627 20.8576 43.7341 21.2687 45.1259C22.6796 44.786 24.1296 44.3543 25.6007 43.8378C24.6885 43.3668 23.7779 42.8699 22.8732 42.3476C21.9684 41.8252 21.0831 41.2851 20.2189 40.7304ZM39.7843 40.7304C38.9202 41.285 38.0356 41.8253 37.131 42.3476C36.2263 42.8699 35.3158 43.3667 34.4035 43.8378C35.8745 44.3541 37.3237 44.786 38.7345 45.1259C39.1456 43.7341 39.4959 42.2628 39.7843 40.7304ZM30.0021 17.9326C28.2122 18.7434 26.4128 19.6685 24.631 20.6972C22.8492 21.726 21.1481 22.822 19.5509 23.9667C19.3582 25.9221 19.2599 27.9426 19.2599 29.9999C19.2599 32.0572 19.3582 34.0777 19.5509 36.0331C21.1481 37.1778 22.8492 38.274 24.631 39.3027C26.4128 40.3315 28.2122 41.2564 30.0021 42.0673C31.792 41.2564 33.5915 40.3314 35.3732 39.3027C37.1549 38.2739 38.8551 37.1777 40.4523 36.0331C40.6449 34.0776 40.7443 32.0573 40.7443 29.9999C40.7443 27.9426 40.6449 25.9222 40.4523 23.9667C38.8551 22.8221 37.1549 21.7259 35.3732 20.6972C33.5915 19.6686 31.792 18.7434 30.0021 17.9326ZM15.8175 26.8935C14.6348 27.9093 13.5359 28.9481 12.5363 29.9999C13.536 31.0519 14.6348 32.0914 15.8175 33.1074C15.7694 32.0816 15.7443 31.0448 15.7443 29.9999C15.7443 28.9554 15.7694 27.919 15.8175 26.8935ZM44.1867 26.8935C44.2348 27.919 44.2599 28.9554 44.2599 29.9999C44.2599 31.0446 44.2348 32.0809 44.1867 33.1064C45.3693 32.0906 46.4683 31.0518 47.4679 29.9999C46.4683 28.9482 45.3693 27.9093 44.1867 26.8935ZM14.3683 13.9628C10.718 13.9629 8.11508 14.94 7.06557 16.7578C5.78403 18.9776 6.74656 22.5775 9.70717 26.6337C9.87624 26.8652 10.0522 27.0967 10.2316 27.3281C11.9899 25.509 14.0089 23.7336 16.2316 22.0497C16.5785 19.283 17.1068 16.6471 17.8029 14.2148C17.5127 14.1751 17.2237 14.1389 16.9386 14.1083C16.0345 14.0114 15.1755 13.9628 14.3683 13.9628ZM45.6349 13.9628C44.8275 13.9628 43.969 14.0113 43.0646 14.1083C42.7796 14.1389 42.4913 14.1751 42.2013 14.2148C42.8975 16.647 43.4256 19.2831 43.7726 22.0497C45.9951 23.7336 48.0134 25.509 49.7716 27.3281C49.9509 27.0967 50.127 26.8652 50.296 26.6337C53.2567 22.5775 54.2193 18.9776 52.9376 16.7578C51.8881 14.9402 49.2848 13.9628 45.6349 13.9628ZM21.2687 14.874C20.8576 16.2658 20.5073 17.7371 20.2189 19.2695C21.0831 18.7149 21.9684 18.1746 22.8732 17.6523C23.7779 17.1299 24.6885 16.6331 25.6007 16.162C24.1296 15.6456 22.6796 15.2138 21.2687 14.874ZM38.7345 14.874C37.3237 15.2138 35.8745 15.6457 34.4035 16.162C35.3158 16.6331 36.2262 17.1299 37.131 17.6523C38.0356 18.1745 38.9202 18.715 39.7843 19.2695C39.4959 17.7371 39.1456 16.2658 38.7345 14.874ZM30.0021 3.51556C27.4389 3.51556 24.803 6.14931 22.7706 10.7411C22.6545 11.0034 22.5415 11.2717 22.4308 11.5429C24.8853 12.1562 27.4325 13.0155 30.0021 14.0986C32.5714 13.0157 35.1181 12.1561 37.5724 11.5429C37.4618 11.2718 37.3496 11.0034 37.2335 10.7411C35.2012 6.14945 32.5652 3.51576 30.0021 3.51556Z" fill="white"/>
</g>
<defs>
<clipPath id="clip0_8072_603">
<rect width="60" height="60" fill="white"/>
</clipPath>
</defs>
</svg>
