<svg width="56" height="56" viewBox="0 0 56 56" fill="none" xmlns="http://www.w3.org/2000/svg">
<path fill-rule="evenodd" clip-rule="evenodd" d="M19.7969 5.06244C20.6252 5.06244 21.2967 5.73412 21.2969 6.56244V21.1826L25.8047 19.3876C26.2667 19.2037 26.7896 19.2609 27.2012 19.54C27.6128 19.8191 27.8594 20.2839 27.8594 20.7812V28.5087L34.7031 26.1025V6.56244C34.7033 5.73412 35.3748 5.06244 36.2031 5.06244H46.0469C46.8752 5.06244 47.5467 5.73412 47.5469 6.56244V21.5859L53.8623 19.3661C54.3212 19.205 54.8297 19.2764 55.2266 19.5576C55.6234 19.8388 55.8594 20.2948 55.8594 20.7812V49.4374C55.8594 50.2659 55.1878 50.9374 54.3594 50.9374H1.64062C0.863961 50.9374 0.225235 50.3472 0.148438 49.5908L0.140625 49.4374V30.6249C0.140626 30.0107 0.515327 29.4586 1.08594 29.2314L8.45312 26.2968V6.56244C8.45326 5.73412 9.12478 5.06244 9.95312 5.06244H19.7969ZM26.8564 32.04C26.3976 32.2012 25.889 32.1297 25.4922 31.8486C25.0954 31.5673 24.8594 31.1113 24.8594 30.6249V22.9931L20.3877 24.7734C20.3796 24.7768 20.3714 24.7798 20.3633 24.7831L10.54 28.6953C10.5361 28.6969 10.5322 28.6985 10.5283 28.7001L3.14062 31.6425V47.9374H10.0938V42.8749C10.0938 42.0465 10.7653 41.3749 11.5938 41.3749H18.1562C18.9847 41.3749 19.6562 42.0465 19.6562 42.8749V47.9374H23.2188V42.8749C23.2188 42.0465 23.8903 41.3749 24.7188 41.3749H31.2812C32.1097 41.3749 32.7812 42.0465 32.7812 42.8749V47.9374H36.3438V42.8749C36.3438 42.0465 37.0153 41.3749 37.8438 41.3749H44.4062C45.2347 41.3749 45.9062 42.0465 45.9062 42.8749V47.9374H52.8594V22.8984L26.8564 32.04ZM13.0938 47.9374H16.6562V44.3749H13.0938V47.9374ZM26.2188 47.9374H29.7812V44.3749H26.2188V47.9374ZM39.3438 47.9374H42.9062V44.3749H39.3438V47.9374ZM11.4531 25.1025L18.2969 22.3769V14.6249H11.4531V25.1025ZM37.7031 25.0468L44.5469 22.6406V14.6249H37.7031V25.0468ZM37.7031 11.6249H44.5469V8.06244H37.7031V11.6249ZM11.4531 11.6249H18.2969V8.06244H11.4531V11.6249Z" fill="white"/>
</svg>
