<svg width="41" height="40" viewBox="0 0 41 40" fill="none" xmlns="http://www.w3.org/2000/svg">
<g clip-path="url(#clip0_8092_676)">
<path fill-rule="evenodd" clip-rule="evenodd" d="M24.359 0.19043C24.7159 0.190497 25.0455 0.381545 25.2243 0.69043L27.0543 3.85449C27.5327 3.62737 28.0678 3.50002 28.6325 3.5C30.6663 3.50017 32.3147 5.14881 32.3151 7.18262C32.3151 9.21665 30.6666 10.866 28.6325 10.8662C28.2418 10.8662 27.8656 10.8051 27.5123 10.6924L25.5133 14.1562L27.193 17.0684C27.4835 16.9947 27.7878 16.9561 28.1012 16.9561C29.7886 16.9562 31.2094 18.0907 31.6452 19.6387H35.0104L38.4645 13.6562L38.5201 13.5703C38.8166 13.1592 39.3823 13.0312 39.8307 13.29C40.2788 13.549 40.4504 14.1023 40.2428 14.5645L40.1959 14.6562L36.7418 20.6387L40.1959 26.6211C40.3523 26.892 40.372 27.2184 40.2545 27.5029L40.1959 27.6221L38.2243 31.0332C38.8723 31.6969 39.272 32.6044 39.2721 33.6055C39.2719 35.6394 37.6234 37.2888 35.5895 37.2891C33.9018 37.289 32.4803 36.153 32.0446 34.6045H28.2252C27.8387 34.6524 27.4431 34.471 27.236 34.1123L23.7819 28.1299H17.4498L14.275 33.6299L16.8043 38.3115C17.0667 38.7974 16.8859 39.4045 16.4 39.667C15.9142 39.9293 15.307 39.7484 15.0446 39.2627L12.2506 34.0879C12.196 33.9866 12.1615 33.8781 12.1442 33.7676C12.1125 33.5783 12.1344 33.3789 12.2174 33.1943L12.2643 33.1035L15.7184 27.1211L14.0377 24.209C13.7487 24.2819 13.4461 24.3213 13.1344 24.3213C11.4471 24.3212 10.0256 23.1865 9.58949 21.6387H6.22132L2.7682 27.6211L2.71253 27.707C2.41607 28.1181 1.85037 28.2461 1.40199 27.9873C0.953669 27.7284 0.781114 27.1742 0.988901 26.7119L1.03578 26.6211L4.48988 20.6387L1.03578 14.6562C0.857231 14.347 0.857404 13.9656 1.03578 13.6562L4.47523 7.69824L0.827768 1.87695C0.534853 1.40916 0.676688 0.792346 1.14417 0.499023C1.58301 0.224064 2.15339 0.331145 2.46449 0.731445L2.52308 0.81543L6.19398 6.67285H12.5534L16.0075 0.69043L16.0807 0.581055C16.2684 0.337061 16.5609 0.190481 16.8737 0.19043H24.359ZM35.5895 31.9229C34.6639 31.9229 33.9122 32.6695 33.9059 33.5938C33.9059 33.5972 33.9069 33.601 33.9069 33.6045C33.9069 33.6081 33.9059 33.6117 33.9059 33.6152C33.9113 34.5402 34.6633 35.289 35.5895 35.2891C36.5189 35.2888 37.2719 34.5349 37.2721 33.6055C37.2719 32.6761 36.5189 31.9231 35.5895 31.9229ZM31.6452 21.6387C31.2092 23.1865 29.7884 24.3221 28.1012 24.3223C27.7885 24.3223 27.4849 24.2824 27.195 24.209L25.5133 27.123L28.6784 32.6045H32.0446C32.4808 31.057 33.9024 29.9229 35.5895 29.9229C35.9007 29.9229 36.2032 29.9605 36.4918 30.0332L38.1744 27.1221L35.0104 21.6387H31.6452ZM15.7692 18.0664C16.4171 18.7301 16.8169 19.6369 16.817 20.6377C16.817 21.6382 16.4175 22.5451 15.7702 23.209L17.4508 26.1211H23.7819L25.4635 23.208C24.8169 22.5444 24.4177 21.6383 24.4176 20.6387C24.4177 19.6398 24.8158 18.7337 25.4616 18.0703L23.7819 15.1562H17.4508L15.7692 18.0664ZM28.1012 18.9561C27.8104 18.9561 27.5362 19.0284 27.2975 19.1582C27.2843 19.1666 27.2721 19.1767 27.2584 19.1846C27.2534 19.1875 27.2479 19.1896 27.2428 19.1924C26.7494 19.4857 26.4177 20.0231 26.4176 20.6387C26.4179 21.5681 27.1718 22.3222 28.1012 22.3223C29.0305 22.3221 29.7836 21.568 29.7838 20.6387C29.7836 19.7093 29.0306 18.9563 28.1012 18.9561ZM13.1344 18.9551C12.2051 18.9552 11.4512 19.7084 11.4508 20.6377C11.4508 21.5673 12.2049 22.3212 13.1344 22.3213C14.0639 22.3211 14.817 21.5672 14.817 20.6377C14.8167 19.7085 14.0637 18.9553 13.1344 18.9551ZM3.05628 14.1562L6.22132 19.6387H9.58949C10.0253 18.0905 11.4469 16.9552 13.1344 16.9551C13.4456 16.9551 13.7481 16.9937 14.0368 17.0664L15.7184 14.1562L12.5524 8.67285H6.22132L3.05628 14.1562ZM14.2848 7.67285L17.4498 13.1562H23.7809L25.8414 9.58496C25.2858 8.93991 24.9489 8.10062 24.9489 7.18262C24.949 6.45427 25.161 5.77557 25.526 5.2041L23.7819 2.19043H17.4498L14.2848 7.67285ZM28.6325 5.5C28.2637 5.50004 27.9235 5.62021 27.6461 5.82129C27.5614 5.98015 27.4336 6.11899 27.2662 6.21582C27.2612 6.21874 27.2557 6.22081 27.2506 6.22363C27.0611 6.49576 26.949 6.82591 26.9489 7.18262C26.9489 8.11217 27.7029 8.86612 28.6325 8.86621C29.562 8.86604 30.3151 8.11212 30.3151 7.18262C30.3147 6.25338 29.5617 5.50017 28.6325 5.5Z" fill="#23B24B"/>
</g>
<defs>
<clipPath id="clip0_8092_676">
<rect width="40" height="40" fill="white" transform="translate(0.5)"/>
</clipPath>
</defs>
</svg>
