<svg width="41" height="40" viewBox="0 0 41 40" fill="none" xmlns="http://www.w3.org/2000/svg">
<g clip-path="url(#clip0_8092_678)">
<path d="M37.315 24.1814C37.6013 24.0606 37.9241 24.0585 38.2122 24.1753C38.4999 24.2925 38.7298 24.519 38.8506 24.8056L40.3298 28.3108C40.5811 28.907 40.3018 29.5942 39.7057 29.8459C39.557 29.9088 39.402 29.9384 39.2504 29.9384C38.7933 29.9383 38.359 29.6694 38.1701 29.2218L37.825 28.4041C34.8471 35.4364 27.92 40.0776 20.2022 40.0777C11.476 40.0777 3.85539 34.1772 1.67094 25.7287C1.50896 25.1023 1.88566 24.4629 2.51209 24.3008C3.13862 24.1393 3.77799 24.5155 3.94004 25.1424C5.85719 32.556 12.5444 37.7339 20.2022 37.7339C27.0054 37.7339 33.109 33.624 35.7026 27.4058L34.7213 27.8203C34.125 28.072 33.4376 27.7924 33.1861 27.1962C32.9345 26.5999 33.2139 25.9125 33.8098 25.661L37.315 24.1814Z" fill="#23B24B"/>
<path fill-rule="evenodd" clip-rule="evenodd" d="M21.9405 7.45616C22.2557 7.07542 22.7757 6.93313 23.2404 7.10026C23.7055 7.2678 24.0156 7.70874 24.0156 8.20312V18.8277H28.286C28.7398 18.8277 29.1528 19.09 29.3463 19.5004C29.5395 19.9112 29.4785 20.3965 29.1892 20.7465L19.3723 32.6211C19.1453 32.8958 18.8114 33.0464 18.4687 33.0464C18.336 33.0464 18.2016 33.024 18.072 32.977C17.607 32.8097 17.297 32.3689 17.2972 31.8746V21.2496H13.0268C12.5731 21.2495 12.16 20.9875 11.9665 20.5768C11.7733 20.1664 11.8344 19.6809 12.1236 19.3312L21.9405 7.45616ZM15.516 18.9058H18.4687C19.1156 18.9058 19.6405 19.4305 19.6406 20.0777V28.6181L25.7964 21.1714H22.8437C22.1965 21.1714 21.6718 20.6468 21.6718 19.9996V11.4596L15.516 18.9058Z" fill="#23B24B"/>
<path d="M20.6419 0.078125C29.3678 0.078125 36.9882 5.97859 39.1727 14.4271C39.3346 15.0536 38.958 15.6926 38.3315 15.8546C38.2333 15.8799 38.1343 15.8924 38.0373 15.8924C37.5158 15.8923 37.0403 15.5417 36.9036 15.0135C34.9865 7.59982 28.2993 2.42188 20.6419 2.42188C13.9446 2.42195 7.92534 6.40382 5.26513 12.4596L6.12233 12.0977C6.71864 11.8462 7.40646 12.1255 7.65792 12.7218C7.90969 13.3181 7.6298 14.0056 7.03379 14.2574L3.52858 15.7365C3.38312 15.7981 3.22819 15.829 3.07329 15.829C2.92349 15.829 2.77345 15.8003 2.63188 15.7426C2.34379 15.6257 2.11428 15.3987 1.99343 15.1124L0.514259 11.6072C0.262875 11.0112 0.542114 10.3238 1.13839 10.072C1.73468 9.82066 2.42179 10.1002 2.67355 10.6962L3.06895 11.6337C6.0743 4.66749 12.9671 0.0782044 20.6419 0.078125Z" fill="#23B24B"/>
</g>
<defs>
<clipPath id="clip0_8092_678">
<rect width="40" height="40" fill="white" transform="translate(0.5)"/>
</clipPath>
</defs>
</svg>
