<svg width="37" height="36" viewBox="0 0 37 36" fill="none" xmlns="http://www.w3.org/2000/svg">
<path fill-rule="evenodd" clip-rule="evenodd" d="M2.46987 35.915C1.7932 36.0466 1.13653 35.605 1.0032 34.9283C0.871532 34.2516 1.3132 33.5933 1.98987 33.4616C1.98987 33.4616 14.1699 31.03 22.8415 17.3516C23.2099 16.77 23.9832 16.5966 24.5665 16.9666C25.1482 17.335 25.3215 18.1083 24.9532 18.6916C15.6315 33.3933 2.46987 35.915 2.46987 35.915Z" fill="#23B24B"/>
<path fill-rule="evenodd" clip-rule="evenodd" d="M14.4431 13.2883C14.7548 13.9033 14.5098 14.6566 13.8948 14.97C13.2798 15.2816 12.5264 15.0366 12.2131 14.4216C11.4714 12.96 10.7914 11.4133 10.2081 9.78996C9.97475 9.13996 10.3131 8.42496 10.9631 8.19162C11.6114 7.95829 12.3281 8.29662 12.5614 8.94496C13.1081 10.4683 13.7464 11.9183 14.4431 13.2883Z" fill="#23B24B"/>
<path fill-rule="evenodd" clip-rule="evenodd" d="M35.1046 4.37C35.1046 4.37 36.6463 10.1883 35.7246 16.6833C35.0963 21.1133 33.3246 25.8383 29.248 29.3217C24.9696 32.9783 18.0896 35.31 7.1113 34.2667C6.50464 34.2083 6.0263 33.72 5.98297 33.1117C5.98297 33.1117 5.01463 19.4733 14.6946 10.6583C18.8213 6.89834 24.8846 3.98834 33.8196 3.44C34.4146 3.40334 34.953 3.79334 35.1046 4.37ZM32.9096 6.015C25.278 6.67 20.0046 9.20334 16.378 12.5067C9.12464 19.1117 8.45964 28.7017 8.4513 31.8717C17.853 32.585 23.858 30.64 27.6246 27.4217C31.193 24.3717 32.698 20.2117 33.2496 16.3317C33.8763 11.9167 33.2696 7.84 32.9096 6.015Z" fill="#23B24B"/>
<path fill-rule="evenodd" clip-rule="evenodd" d="M20.1465 8.08332C20.5715 8.62665 20.4765 9.41165 19.9348 9.83832C19.3915 10.265 18.6048 10.17 18.1798 9.62665C16.0315 6.88999 12.7198 4.45165 7.71646 2.82665C7.20313 4.03165 6.36979 6.28165 5.98479 8.93999C5.42813 12.79 5.80479 17.5417 9.73313 21.08C10.2465 21.5417 10.2865 22.3317 9.82479 22.845C9.36313 23.3583 8.57313 23.3983 8.05979 22.9367C3.40479 18.7433 2.85146 13.1467 3.51146 8.58165C4.15146 4.14999 5.92813 0.736653 5.92813 0.736653C6.20146 0.206653 6.81146 -0.0550134 7.38479 0.111653C13.5998 1.90999 17.5948 4.83165 20.1465 8.08332Z" fill="#23B24B"/>
</svg>
