<svg width="41" height="40" viewBox="0 0 41 40" fill="none" xmlns="http://www.w3.org/2000/svg">
<g clip-path="url(#clip0_8092_679)">
<path d="M20.5 30.7188C21.0523 30.7188 21.5 31.1665 21.5 31.7188V34.0625C21.5 34.6148 21.0523 35.0625 20.5 35.0625C19.9477 35.0625 19.5 34.6148 19.5 34.0625V31.7188C19.5 31.1665 19.9477 30.7188 20.5 30.7188Z" fill="#23B24B"/>
<path d="M9.72754 29.1152C10.1852 28.6576 10.9281 28.6576 11.3857 29.1152C11.843 29.5729 11.8431 30.3149 11.3857 30.7725C10.9281 31.2301 10.1852 31.2301 9.72754 30.7725C9.27015 30.3149 9.27027 29.5729 9.72754 29.1152Z" fill="#23B24B"/>
<path d="M29.6143 29.1152C30.0719 28.6576 30.8148 28.6576 31.2725 29.1152C31.7297 29.5729 31.7299 30.3149 31.2725 30.7725C30.8148 31.2301 30.0719 31.2301 29.6143 30.7725C29.1569 30.3149 29.157 29.5729 29.6143 29.1152Z" fill="#23B24B"/>
<path d="M20.5 11.9688C21.0523 11.9688 21.5 12.4165 21.5 12.9688V19.5859L28.2383 26.3242L28.3066 26.4004C28.627 26.7932 28.6044 27.3722 28.2383 27.7383C27.8722 28.1044 27.2932 28.127 26.9004 27.8066L26.8242 27.7383L19.793 20.707C19.6288 20.5429 19.5276 20.3276 19.5049 20.0986L19.5 20V12.9688C19.5 12.4165 19.9477 11.9688 20.5 11.9688Z" fill="#23B24B"/>
<path d="M8.78125 19C9.33354 19 9.78125 19.4477 9.78125 20C9.78125 20.5523 9.33354 21 8.78125 21H6.4375C5.88522 21 5.4375 20.5523 5.4375 20C5.4375 19.4477 5.88522 19 6.4375 19H8.78125Z" fill="#23B24B"/>
<path d="M34.5625 19C35.1148 19 35.5625 19.4477 35.5625 20C35.5625 20.5523 35.1148 21 34.5625 21H32.2188C31.6665 21 31.2188 20.5523 31.2188 20C31.2188 19.4477 31.6665 19 32.2188 19H34.5625Z" fill="#23B24B"/>
<path d="M9.72754 9.22754C10.1852 8.76988 10.9282 8.76988 11.3857 9.22754C11.8431 9.6851 11.843 10.4271 11.3857 10.8848C10.9282 11.3424 10.1852 11.3424 9.72754 10.8848C9.27027 10.4271 9.27015 9.6851 9.72754 9.22754Z" fill="#23B24B"/>
<path d="M29.6143 9.22754C30.0718 8.76988 30.8148 8.76988 31.2725 9.22754C31.7299 9.6851 31.7297 10.4271 31.2725 10.8848C30.8148 11.3424 30.0718 11.3424 29.6143 10.8848C29.157 10.4271 29.1569 9.6851 29.6143 9.22754Z" fill="#23B24B"/>
<path d="M20.5 4.9375C21.0523 4.9375 21.5 5.38522 21.5 5.9375V8.28125C21.5 8.83354 21.0523 9.28125 20.5 9.28125C19.9477 9.28125 19.5 8.83354 19.5 8.28125V5.9375C19.5 5.38522 19.9477 4.9375 20.5 4.9375Z" fill="#23B24B"/>
<path fill-rule="evenodd" clip-rule="evenodd" d="M20.5 0.171875C31.4076 0.171876 40.3281 9.0924 40.3281 20C40.3281 30.9076 31.4076 39.8281 20.5 39.8281C9.5924 39.8281 0.671875 30.9076 0.671875 20C0.671876 9.0924 9.5924 0.171875 20.5 0.171875ZM20.5 2.17188C10.697 2.17188 2.67188 10.197 2.67188 20C2.67188 29.803 10.697 37.8281 20.5 37.8281C30.303 37.8281 38.3281 29.803 38.3281 20C38.3281 10.197 30.303 2.17188 20.5 2.17188Z" fill="#23B24B"/>
</g>
<defs>
<clipPath id="clip0_8092_679">
<rect width="40" height="40" fill="white" transform="translate(0.5)"/>
</clipPath>
</defs>
</svg>
