<svg width="65" height="64" viewBox="0 0 65 64" fill="none" xmlns="http://www.w3.org/2000/svg">
<g clip-path="url(#clip0_8144_1734)">
<path d="M52.1593 39.3435H49.8325C51.83 37.2178 53.0558 34.3588 53.0558 31.2185V22.5187C53.0558 21.4832 52.2163 20.6437 51.1808 20.6437C41.9583 20.6471 42.513 20.6362 42.0635 20.6518C44.3841 16.2773 43.8193 10.5614 39.9584 6.70065L33.807 0.549002C33.0752 -0.182876 31.8873 -0.183126 31.1553 0.549002L25.0037 6.70065C21.1432 10.5612 20.5778 16.2769 22.8986 20.6518C22.4482 20.6362 22.9946 20.6471 13.7813 20.6437C12.7458 20.6437 11.9063 21.4832 11.9063 22.5187V31.2185C11.9063 34.3588 13.132 37.2178 15.1295 39.3435H12.8399C6.04212 39.3435 0.511719 44.8739 0.511719 51.6717C0.511719 58.4695 6.04212 63.9999 12.8399 63.9999H52.1593C58.9571 63.9999 64.4875 58.4695 64.4875 51.6717C64.4875 44.8739 58.9571 39.3435 52.1593 39.3435ZM49.3059 24.3937V31.2185C49.3059 35.6986 45.661 39.3435 41.1809 39.3435H37.0077L45.0381 31.3131C45.7704 30.5809 45.7704 29.3937 45.0381 28.6615C44.3059 27.9292 43.1188 27.9292 42.3865 28.6615L34.3561 36.6919V32.5188C34.3561 28.0386 38.001 24.3937 42.4811 24.3937H49.3059ZM27.6553 9.35229L32.4811 4.52652L37.3069 9.35229C40.4821 12.5274 40.4826 17.6672 37.3069 20.8428L34.3561 23.7936V14.9998C34.3561 13.9643 33.5166 13.1248 32.4811 13.1248C31.4456 13.1248 30.6061 13.9643 30.6061 14.9998V23.7936L27.6553 20.8428C24.4801 17.6677 24.4796 12.5279 27.6553 9.35229ZM15.6564 31.2185V24.3937H22.4812C26.9613 24.3937 30.6062 28.0386 30.6062 32.5188V36.6919L22.5758 28.6615C21.8437 27.9292 20.6564 27.9292 19.9242 28.6615C19.1919 29.3937 19.1919 30.5809 19.9242 31.3131L27.9546 39.3435H23.7814C19.3013 39.3435 15.6564 35.6988 15.6564 31.2185ZM4.26173 51.6718C4.26173 46.9418 8.10987 43.0937 12.8399 43.0937H30.5621V60.2501H12.8399C8.10987 60.25 4.26173 56.4018 4.26173 51.6718ZM52.1593 60.25H34.3122V43.0935H52.1593C56.8893 43.0935 60.7375 46.9417 60.7375 51.6717C60.7375 56.4017 56.8893 60.25 52.1593 60.25Z" fill="#23B24B"/>
</g>
<defs>
<clipPath id="clip0_8144_1734">
<rect width="64" height="64" fill="white" transform="translate(0.5)"/>
</clipPath>
</defs>
</svg>
