<svg width="65" height="65" viewBox="0 0 65 65" fill="none" xmlns="http://www.w3.org/2000/svg">
<path fill-rule="evenodd" clip-rule="evenodd" d="M15.9769 31.934C15.9798 31.9342 15.9822 31.9344 15.9839 31.9345H15.9829C15.9958 31.935 16.0097 31.9353 16.0243 31.9365C16.0322 31.9372 16.0391 31.9378 16.0459 31.9385H16.0469L16.1099 31.9476L16.1457 31.9547L16.1462 31.9552L16.1946 31.9668C16.2051 31.9697 16.2144 31.9726 16.2198 31.9743L16.2294 31.9773L16.2299 31.9779L16.2657 31.99L16.2984 32.0026L16.3363 32.0197L16.3988 32.0519L16.4265 32.0681L16.4547 32.0862L16.4875 32.1089L16.488 32.1094L16.5142 32.1291L16.5484 32.1578L16.5978 32.2037C16.6137 32.2196 16.6292 32.2365 16.6442 32.2541L16.6689 32.2838L16.6886 32.31L16.7123 32.3448L16.7309 32.373L16.7496 32.4053C16.7541 32.4134 16.762 32.4275 16.7702 32.4441L16.806 32.5136L16.8882 32.6613C17.3162 33.3954 18.2323 34.4239 20.5439 35.2898L20.7939 35.3806L20.9411 35.4355L20.9471 35.438L21.0983 35.4995C22.6517 36.1618 23.8273 37.5336 24.1745 39.2238L24.2097 39.4123C24.3682 40.3582 24.269 41.358 23.8715 42.2984L23.87 42.3019L23.8312 42.3917L23.8297 42.3952C23.6585 42.7784 23.4452 43.1304 23.1997 43.4501L24.5051 44.0368L24.5888 44.0797C24.9644 44.2965 25.1368 44.7497 25.0001 45.1613L24.9663 45.249C24.7587 45.7109 24.2155 45.9172 23.7536 45.7097L21.6871 44.7818C20.3879 45.5388 18.7796 45.7298 17.2808 45.1855C17.2781 45.1845 17.2755 45.1825 17.2727 45.1815L17.2531 45.1749C17.2464 45.1725 17.2399 45.1696 17.2334 45.1669C13.689 43.6494 12.0095 39.3275 13.6427 35.7435L15.1115 32.4743L15.1246 32.4471C15.1251 32.446 15.1257 32.4447 15.1261 32.4441L15.1367 32.4224C15.1608 32.3767 15.1884 32.3342 15.2183 32.2949L15.2274 32.2833L15.2712 32.2314C15.2728 32.2297 15.2747 32.2276 15.2768 32.2253L15.3327 32.1699C15.3521 32.1524 15.3721 32.1357 15.3927 32.12L15.4058 32.1109C15.407 32.11 15.4082 32.1088 15.4088 32.1084L15.4098 32.1079L15.4103 32.1074L15.4562 32.0761C15.4611 32.073 15.4676 32.0689 15.4749 32.0645L15.5263 32.0358C15.5296 32.034 15.5363 32.0305 15.5439 32.0267L15.6125 31.9965L15.621 31.9935L15.623 31.9925L15.6861 31.9713L15.7012 31.9668C15.7127 31.9636 15.6988 31.9674 15.7067 31.9653L15.7627 31.9521L15.7667 31.9511C15.7701 31.9504 15.7771 31.9491 15.7853 31.9476L15.8544 31.9375C15.8783 31.935 15.9028 31.9335 15.928 31.933H15.9512L15.9769 31.934ZM15.2123 36.742C14.1819 39.3416 15.4358 42.3847 17.93 43.4693C18.4818 43.6652 19.0572 43.7074 19.6064 43.6155C17.3099 41.9811 15.7317 39.5145 15.2123 36.742ZM16.8816 35.372C17.0958 38.4143 18.8289 41.1447 21.4814 42.6366C21.7551 42.3568 21.9857 42.0256 22.1548 41.6472L22.2113 41.5141C22.4447 40.9255 22.5003 40.3038 22.4003 39.7112L22.3781 39.5928C22.1508 38.4861 21.3575 37.569 20.2853 37.1482L20.175 37.1069C18.7228 36.5919 17.6633 35.9933 16.8816 35.372ZM15.9174 31.9345C15.9176 31.9345 15.9186 31.9341 15.9199 31.934H15.9184L15.9174 31.9345Z" fill="#23B24B"/>
<path fill-rule="evenodd" clip-rule="evenodd" d="M36.7606 31.938C36.7857 31.9408 36.8097 31.9448 36.8327 31.9491C36.8403 31.9505 36.8463 31.9518 36.8504 31.9527L36.8579 31.9542L36.9139 31.9683L36.9129 31.9678C36.9132 31.9679 36.9141 31.9681 36.9149 31.9683L36.9386 31.9753L37.0101 32.0015L37.0253 32.0076C37.027 32.0083 37.0288 32.0091 37.0298 32.0096C37.0308 32.0101 37.0313 32.0104 37.0318 32.0106L37.0852 32.0363L37.1049 32.0464L37.1709 32.0862L37.1714 32.0867L37.1876 32.0978C37.1883 32.0983 37.1891 32.099 37.1896 32.0993L37.2354 32.1336L37.236 32.1341L37.2496 32.1457C37.2508 32.1468 37.2526 32.1478 37.2531 32.1482L37.2536 32.1487L37.301 32.1916L37.2924 32.1835L37.2919 32.183C37.2929 32.1839 37.2957 32.1866 37.299 32.1895L37.3136 32.2037L37.3665 32.2616L37.3736 32.2707C37.3753 32.2729 37.3769 32.2748 37.3776 32.2757L37.3786 32.2767C37.3784 32.2765 37.3773 32.2753 37.3761 32.2737C37.3892 32.2899 37.4022 32.3075 37.4149 32.3256C37.4189 32.3314 37.4228 32.3365 37.425 32.3397C37.426 32.3413 37.4269 32.3428 37.4275 32.3438L37.429 32.3458L37.4577 32.3927L37.4854 32.4441L37.488 32.4496L37.5001 32.4743L37.5036 32.4829C37.5042 32.4841 37.5045 32.4856 37.5051 32.4869L38.9703 35.748L38.9718 35.752C40.5986 39.3343 38.9197 43.6506 35.3781 45.1669L35.3771 45.1674C35.3648 45.1726 35.3533 45.1761 35.3453 45.179C35.3404 45.181 35.3357 45.1837 35.3307 45.1855C33.8317 45.7299 32.2228 45.5391 30.9234 44.7818L28.8574 45.7097L28.8393 45.7173L28.7889 45.7369C28.7829 45.7393 28.7768 45.7414 28.7707 45.7435C28.3569 45.8811 27.9008 45.707 27.685 45.3277L27.6452 45.249C27.4506 44.8157 27.6199 44.3117 28.0227 44.0792L28.0404 44.0696L28.0888 44.0449L28.1059 44.0368L29.4108 43.4501C29.1906 43.1633 28.9963 42.8504 28.8352 42.5121L28.8332 42.5076L28.7833 42.3992L28.7813 42.3952C28.321 41.3645 28.2245 40.2567 28.4366 39.2238L28.4744 39.056C28.8758 37.3892 30.0886 36.0536 31.6644 35.438L31.8231 35.3786L32.0757 35.2863L32.3095 35.1966C34.6728 34.2601 35.4835 33.1565 35.8438 32.4385L35.8549 32.4179C35.8562 32.4156 35.8572 32.4136 35.8579 32.4123C35.8586 32.4111 35.8593 32.41 35.8594 32.4098L35.8675 32.3947C35.8739 32.3835 35.8806 32.3722 35.8877 32.3609L35.9078 32.3302C35.9206 32.3116 35.9354 32.2918 35.9517 32.2717L35.9577 32.2641L36.0026 32.2142L36.0248 32.1921L36.0621 32.1578L36.0626 32.1573C36.0629 32.157 36.0648 32.1559 36.0661 32.1548C36.0689 32.1523 36.0744 32.1472 36.0812 32.1417L36.1402 32.0968L36.1593 32.0842C36.1614 32.0829 36.1632 32.0814 36.1644 32.0807C36.1657 32.0798 36.1664 32.0795 36.1669 32.0792L36.2057 32.0555L36.236 32.0388L36.2924 32.0116L36.3126 32.0031L36.3756 31.9794L36.4028 31.9708L36.4557 31.9572L36.4567 31.9567C36.4572 31.9566 36.4599 31.9561 36.4618 31.9557C36.466 31.9547 36.4741 31.9526 36.4839 31.9506L36.5636 31.9385L36.5742 31.9375L36.6215 31.935H36.6225L36.623 31.9345C36.6238 31.9345 36.6247 31.9346 36.6256 31.9345C36.6342 31.9341 36.6425 31.9336 36.6503 31.9335C36.6454 31.9336 36.641 31.9333 36.6372 31.9335C36.6433 31.9331 36.6513 31.933 36.6603 31.933H36.683L36.7606 31.938ZM37.3988 36.7415C36.8795 39.5143 35.3014 41.981 33.0046 43.6155C33.5536 43.7074 34.1288 43.665 34.6805 43.4693C37.1753 42.3849 38.4296 39.3414 37.3988 36.7415ZM35.7279 35.3725C34.9989 35.9517 34.0286 36.5122 32.7233 37.0026L32.7198 37.0036L32.4396 37.1059L32.4361 37.1074C31.3439 37.4947 30.5211 38.3902 30.2571 39.4859L30.2329 39.5923L30.2334 39.5928C30.0958 40.2633 30.1582 40.9773 30.4542 41.6427L30.4915 41.7233L30.5721 41.8821C30.725 42.1645 30.914 42.4167 31.1296 42.6371C33.7822 41.1454 35.5136 38.4148 35.7279 35.3725ZM36.6891 31.934C36.6922 31.9342 36.695 31.9344 36.6966 31.9345H36.6976C36.6965 31.9344 36.6945 31.9342 36.6921 31.934C36.6898 31.9338 36.6864 31.9337 36.6825 31.9335C36.685 31.9336 36.6872 31.9339 36.6891 31.934Z" fill="#23B24B"/>
<path fill-rule="evenodd" clip-rule="evenodd" d="M19.5787 23.8151C20.9372 20.1849 25.0697 18.3184 28.612 19.6276L28.7803 19.6926L28.8 19.7006L28.8156 19.7082C28.8194 19.7098 28.8234 19.711 28.8272 19.7127C30.2721 20.3877 31.2745 21.6603 31.6578 23.1144L33.7753 23.9194L33.861 23.9572C34.2488 24.1515 34.4477 24.5941 34.3352 25.0131L34.3065 25.1024C34.1378 25.5459 33.6618 25.7832 33.2128 25.6628L33.1236 25.6336L31.7858 25.125C31.7389 25.4838 31.6548 25.8427 31.5293 26.1961L31.5278 26.2001L31.4865 26.312L31.4849 26.3166C31.0943 27.3379 30.411 28.1693 29.5681 28.748L29.5656 28.75L29.4895 28.8009L29.4865 28.803C27.9993 29.7833 26.1277 29.8996 24.5268 29.1981L24.5212 29.1956L24.3781 29.1301L24.3725 29.1276C21.911 27.9548 20.4533 28.0726 19.612 28.3135L19.4517 28.3629C19.4403 28.3667 19.4308 28.3698 19.4265 28.371C19.4253 28.3713 19.4242 28.3713 19.4235 28.3715C19.4228 28.3717 19.4222 28.3714 19.4219 28.3715C19.4168 28.373 19.3978 28.3794 19.3786 28.3841C19.3679 28.3867 19.358 28.3886 19.3529 28.3896C19.3505 28.3901 19.3478 28.3905 19.3468 28.3907H19.3453L19.3458 28.3912C19.3345 28.3935 19.3193 28.3961 19.3025 28.3987L19.2738 28.4028C19.2578 28.4047 19.2386 28.407 19.2173 28.4083H19.2153C19.2127 28.4085 19.2066 28.4085 19.1997 28.4088L19.2002 28.4093H19.1256C19.1176 28.409 19.1108 28.4085 19.1074 28.4083L19.1034 28.4078C19.0883 28.4068 19.0704 28.4056 19.0515 28.4033C19.0418 28.4021 19.033 28.4008 19.0258 28.3997L18.9723 28.3902C18.9728 28.3902 18.9729 28.3903 18.9723 28.3902C18.972 28.3901 18.972 28.3898 18.9713 28.3896C18.9708 28.3895 18.9701 28.3893 18.9693 28.3891L18.9502 28.3851C18.9314 28.3807 18.9147 28.3762 18.9023 28.3725L18.8458 28.3534C18.8441 28.3527 18.8276 28.3467 18.8121 28.3403L18.7823 28.3277C18.7673 28.3208 18.7527 28.3134 18.7385 28.306C18.7327 28.303 18.7238 28.2982 18.7143 28.2929L18.6654 28.2636C18.6606 28.2605 18.6674 28.2651 18.6588 28.2596C18.6552 28.2573 18.6492 28.2533 18.6422 28.2485L18.5847 28.2052L18.5842 28.2047C18.5837 28.2042 18.5801 28.2015 18.5767 28.1986L18.5258 28.1533L18.5248 28.1522L18.5157 28.1437C18.5137 28.1418 18.5122 28.1397 18.5106 28.1381L18.5021 28.1291L18.4996 28.127C18.4825 28.1092 18.4666 28.0909 18.4517 28.0726L18.4098 28.0172L18.3967 27.998C18.3855 27.9809 18.3756 27.9647 18.3675 27.9506C18.3653 27.9469 18.369 27.9527 18.364 27.9441L18.3534 27.9254C18.348 27.9153 18.3435 27.9064 18.3408 27.9007C18.3394 27.8979 18.3381 27.8948 18.3373 27.8932L18.3357 27.8896L18.3136 27.8408C18.3054 27.8209 18.2992 27.8028 18.2944 27.7888C18.2939 27.7873 18.2905 27.7786 18.2879 27.7702C18.2828 27.7543 18.2782 27.7369 18.2738 27.7193L18.2732 27.7188C18.2731 27.7181 18.2731 27.7173 18.2727 27.7158C18.2724 27.7144 18.2718 27.7124 18.2712 27.7102C18.2701 27.7059 18.2684 27.6993 18.2667 27.6916L18.2491 27.5797C18.2455 27.5422 18.2445 27.5046 18.2455 27.4673L18.246 27.4491L18.2591 27.3337C18.2659 27.2956 18.2752 27.2577 18.2869 27.2203C18.2888 27.214 18.2904 27.2086 18.2914 27.2057C18.2919 27.2043 18.2927 27.2027 18.2929 27.2021C18.2931 27.2016 18.2929 27.2011 18.2929 27.2011L18.2934 27.2001C18.2937 27.1993 18.2947 27.1967 18.2954 27.1946C18.2971 27.1894 18.3005 27.1792 18.305 27.1674L19.5787 23.8151ZM29.995 24.4849C27.0648 23.6645 23.9094 24.3707 21.6069 26.37C22.5987 26.4834 23.7714 26.8093 25.1619 27.4718L25.2632 27.5182L25.4633 27.5983C26.4684 27.9673 27.5855 27.8557 28.4703 27.2752L28.5827 27.1986C29.1063 26.8245 29.5272 26.3007 29.7717 25.6613L29.8025 25.5782C29.93 25.2173 29.9911 24.8486 29.995 24.4849ZM28.0737 21.3856C25.543 20.3885 22.504 21.6536 21.3942 24.2203C23.7218 22.6273 26.5817 21.9993 29.3609 22.4673C29.0378 22.0143 28.6018 21.6372 28.0737 21.3856Z" fill="#23B24B"/>
<path fill-rule="evenodd" clip-rule="evenodd" d="M49.9794 1.34832C50.5 1.4011 50.9063 1.8405 50.9063 2.37503V4.83521L62.8912 8.04691C63.4074 8.18523 63.7268 8.69125 63.6432 9.20769L63.621 9.31102L61.68 16.5555C61.646 16.6823 61.5883 16.8016 61.5096 16.9068L57.5963 22.1366L49.6513 51.7878L50.8327 54.7415C50.8815 54.8634 50.9063 54.9937 50.9063 55.125V62.625C50.9063 63.1951 50.4442 63.6573 49.8741 63.6573H2.37405C1.80395 63.6573 1.3418 63.1951 1.3418 62.625V55.125C1.3418 54.9937 1.36661 54.8634 1.41539 54.7415L3.8418 48.6754V16.3246L1.41539 10.2586C1.36661 10.1367 1.3418 10.0064 1.3418 9.87503V2.37503L1.34734 2.26969C1.40012 1.74908 1.83953 1.34277 2.37405 1.34277H49.8741L49.9794 1.34832ZM3.40631 61.5928H48.8418V56.1573H3.40631V61.5928ZM5.83272 15.7415L5.86448 15.8347C5.89208 15.9289 5.90631 16.0266 5.90631 16.125V48.875C5.90631 49.0064 5.8815 49.1367 5.83272 49.2586L3.89926 54.0928H48.3489L46.4154 49.2586C46.3666 49.1367 46.3418 49.0064 46.3418 48.875V16.125C46.3418 16.0922 46.3432 16.0594 46.3463 16.0267C46.3493 15.9958 46.3537 15.965 46.3594 15.9345C46.3602 15.9303 46.3611 15.9261 46.362 15.9219C46.3666 15.8988 46.3724 15.8761 46.3786 15.8534C46.3817 15.8419 46.3847 15.8304 46.3882 15.8191C46.3963 15.7929 46.4052 15.767 46.4154 15.7415L48.3489 10.9073H3.89926L5.83272 15.7415ZM48.4063 16.3246V48.4572L55.6533 21.4113L55.683 21.3176C55.7173 21.2256 55.7647 21.1389 55.8237 21.06L58.9426 16.8907L49.2213 14.2858L48.4063 16.3246ZM50.9063 9.87503C50.9063 10.0064 50.8815 10.1367 50.8327 10.2586L49.9935 12.3554L59.9527 15.0237L61.3599 9.77372L50.9063 6.97231V9.87503ZM3.40631 8.84277H48.8418V3.40729H3.40631V8.84277Z" fill="#23B24B"/>
<path d="M18.9723 28.3902L19.0258 28.3997C19.033 28.4008 19.0418 28.4021 19.0515 28.4033C19.0705 28.4056 19.0883 28.4068 19.1034 28.4078L19.1074 28.4083C19.1108 28.4085 19.1176 28.409 19.1256 28.4093H19.2002L19.1997 28.4088C19.2066 28.4085 19.2127 28.4085 19.2153 28.4083H19.2173C19.2386 28.407 19.2578 28.4047 19.2738 28.4028L19.3025 28.3987C19.3193 28.3961 19.3345 28.3935 19.3458 28.3912L19.3453 28.3907H19.3468C19.3478 28.3905 19.3505 28.3901 19.3529 28.3896C19.358 28.3886 19.3679 28.3867 19.3786 28.3841C19.3978 28.3794 19.4168 28.373 19.4219 28.3715C19.4222 28.3714 19.4228 28.3717 19.4234 28.3715C19.4242 28.3713 19.4253 28.3713 19.4265 28.371C19.4308 28.3698 19.4403 28.3667 19.4517 28.3629L19.612 28.3135C20.4533 28.0726 21.911 27.9548 24.3725 29.1276L24.3781 29.1301L24.5212 29.1956L24.5268 29.1981C26.1277 29.8996 27.9993 29.7833 29.4865 28.803L29.4895 28.8009L29.5656 28.75L29.5681 28.748C30.411 28.1693 31.0943 27.3379 31.4849 26.3166L31.4865 26.312L31.5278 26.2001L31.5293 26.1961C31.6548 25.8427 31.7389 25.4838 31.7858 25.125L33.1235 25.6336L33.2128 25.6628C33.6618 25.7832 34.1378 25.5459 34.3065 25.1023L34.3352 25.0131C34.4477 24.5941 34.2488 24.1515 33.8609 23.9572L33.7753 23.9194L31.6578 23.1144C31.2745 21.6603 30.2721 20.3877 28.8272 19.7127C28.8234 19.711 28.8194 19.7098 28.8156 19.7082L28.8 19.7006L28.7803 19.6926L28.612 19.6276C25.0697 18.3184 20.9372 20.1849 19.5787 23.8151L18.305 27.1674C18.3005 27.1792 18.2971 27.1894 18.2954 27.1946C18.2947 27.1967 18.2937 27.1993 18.2934 27.2001L18.2929 27.2011C18.2929 27.2011 18.2931 27.2016 18.2929 27.2021C18.2927 27.2027 18.2919 27.2043 18.2914 27.2057C18.2904 27.2086 18.2888 27.214 18.2869 27.2203C18.2752 27.2577 18.2659 27.2956 18.2591 27.3337L18.246 27.4491L18.2455 27.4673C18.2445 27.5046 18.2455 27.5422 18.2491 27.5797L18.2667 27.6916C18.2684 27.6993 18.2701 27.7059 18.2712 27.7102C18.2718 27.7124 18.2724 27.7144 18.2727 27.7158C18.2731 27.7173 18.2731 27.7181 18.2732 27.7188L18.2738 27.7193C18.2782 27.7369 18.2828 27.7543 18.2879 27.7702C18.2905 27.7786 18.2939 27.7873 18.2944 27.7888C18.2992 27.8028 18.3054 27.8209 18.3136 27.8408L18.3357 27.8896L18.3373 27.8932C18.3381 27.8948 18.3394 27.8979 18.3408 27.9007C18.3435 27.9064 18.348 27.9153 18.3534 27.9254L18.364 27.9441C18.369 27.9527 18.3653 27.9469 18.3675 27.9506C18.3756 27.9647 18.3855 27.9809 18.3967 27.998L18.4098 28.0172L18.4517 28.0726C18.4666 28.0909 18.4825 28.1092 18.4996 28.127L18.5021 28.1291L18.5106 28.1381C18.5122 28.1397 18.5137 28.1418 18.5157 28.1437L18.5248 28.1522L18.5258 28.1533L18.5767 28.1986C18.5801 28.2015 18.5837 28.2042 18.5842 28.2047L18.5847 28.2052L18.6422 28.2485C18.6492 28.2533 18.6552 28.2573 18.6588 28.2596C18.6674 28.2651 18.6606 28.2605 18.6654 28.2636L18.7143 28.2929C18.7238 28.2982 18.7327 28.303 18.7385 28.306C18.7527 28.3134 18.7673 28.3208 18.7823 28.3277L18.8121 28.3403C18.8276 28.3467 18.8441 28.3527 18.8458 28.3534L18.9023 28.3725C18.9147 28.3762 18.9314 28.3807 18.9502 28.3851L18.9693 28.3891C18.9701 28.3893 18.9708 28.3895 18.9713 28.3896C18.972 28.3898 18.972 28.3901 18.9723 28.3902ZM18.9723 28.3902C18.9729 28.3903 18.9728 28.3902 18.9723 28.3902ZM49.9794 1.34832C50.5 1.4011 50.9063 1.8405 50.9063 2.37503V4.83521L62.8912 8.04691C63.4074 8.18523 63.7268 8.69125 63.6432 9.20769L63.621 9.31102L61.68 16.5555C61.646 16.6823 61.5883 16.8016 61.5096 16.9068L57.5963 22.1366L49.6513 51.7878L50.8327 54.7415C50.8815 54.8634 50.9063 54.9937 50.9063 55.125V62.625C50.9063 63.1951 50.4442 63.6573 49.8741 63.6573H2.37405C1.80395 63.6573 1.3418 63.1951 1.3418 62.625V55.125C1.3418 54.9937 1.36661 54.8634 1.41539 54.7415L3.8418 48.6754V16.3246L1.41539 10.2586C1.36661 10.1367 1.3418 10.0064 1.3418 9.87503V2.37503L1.34734 2.26969C1.40012 1.74908 1.83953 1.34277 2.37405 1.34277H49.8741L49.9794 1.34832ZM3.40631 61.5928H48.8418V56.1573H3.40631V61.5928ZM5.83272 15.7415L5.86448 15.8347C5.89208 15.9289 5.90631 16.0266 5.90631 16.125V48.875C5.90631 49.0064 5.8815 49.1367 5.83272 49.2586L3.89926 54.0928H48.3489L46.4154 49.2586C46.3666 49.1367 46.3418 49.0064 46.3418 48.875V16.125C46.3418 16.0922 46.3432 16.0594 46.3463 16.0267C46.3493 15.9958 46.3537 15.965 46.3594 15.9345C46.3602 15.9303 46.3611 15.9261 46.362 15.9219C46.3666 15.8988 46.3724 15.8761 46.3786 15.8534C46.3817 15.8419 46.3847 15.8304 46.3882 15.8191C46.3963 15.7929 46.4052 15.767 46.4154 15.7415L48.3489 10.9073H3.89926L5.83272 15.7415ZM48.4063 16.3246V48.4572L55.6533 21.4113L55.683 21.3176C55.7173 21.2256 55.7647 21.1389 55.8237 21.06L58.9426 16.8907L49.2213 14.2858L48.4063 16.3246ZM15.9769 31.934C15.9798 31.9342 15.9822 31.9344 15.9839 31.9345H15.9829C15.9958 31.935 16.0097 31.9353 16.0243 31.9365C16.0322 31.9372 16.0391 31.9378 16.0459 31.9385H16.0469L16.1099 31.9476L16.1457 31.9547L16.1462 31.9552L16.1946 31.9668C16.2051 31.9697 16.2144 31.9726 16.2198 31.9743L16.2294 31.9773L16.2299 31.9779L16.2657 31.9899L16.2984 32.0026L16.3363 32.0197L16.3988 32.0519L16.4265 32.0681L16.4547 32.0862L16.4875 32.1089L16.488 32.1094L16.5142 32.1291L16.5484 32.1578L16.5978 32.2037C16.6137 32.2196 16.6292 32.2365 16.6442 32.2541L16.6689 32.2838L16.6886 32.31L16.7123 32.3448L16.7309 32.373L16.7496 32.4053C16.7541 32.4134 16.762 32.4275 16.7702 32.4441L16.806 32.5136L16.8882 32.6613C17.3162 33.3954 18.2323 34.4239 20.5439 35.2898L20.7939 35.3806L20.9411 35.4355L20.9471 35.438L21.0983 35.4995C22.6517 36.1618 23.8273 37.5336 24.1745 39.2238L24.2097 39.4123C24.3682 40.3582 24.269 41.358 23.8715 42.2984L23.87 42.3019L23.8312 42.3917L23.8297 42.3952C23.6585 42.7784 23.4452 43.1304 23.1997 43.4501L24.5051 44.0368L24.5888 44.0797C24.9644 44.2965 25.1368 44.7497 25.0001 45.1613L24.9663 45.249C24.7587 45.7109 24.2155 45.9172 23.7536 45.7097L21.6871 44.7818C20.3879 45.5388 18.7796 45.7298 17.2808 45.1855C17.2781 45.1845 17.2755 45.1825 17.2727 45.1815L17.2531 45.1749C17.2464 45.1725 17.2399 45.1696 17.2334 45.1669C13.689 43.6494 12.0095 39.3275 13.6427 35.7435L15.1115 32.4743L15.1246 32.4471C15.1251 32.446 15.1257 32.4447 15.1261 32.4441L15.1367 32.4224C15.1608 32.3767 15.1884 32.3342 15.2183 32.2949L15.2274 32.2833L15.2712 32.2314C15.2728 32.2297 15.2747 32.2276 15.2768 32.2253L15.3327 32.1699C15.3521 32.1524 15.3721 32.1357 15.3927 32.12L15.4058 32.1109C15.407 32.11 15.4082 32.1088 15.4088 32.1084L15.4098 32.1079L15.4103 32.1074L15.4562 32.0761C15.4611 32.073 15.4676 32.0689 15.4749 32.0645L15.5263 32.0358C15.5296 32.034 15.5363 32.0305 15.5439 32.0267L15.6125 31.9965L15.621 31.9935L15.623 31.9925L15.6861 31.9713L15.7012 31.9668C15.7127 31.9636 15.6988 31.9674 15.7067 31.9653L15.7627 31.9521L15.7667 31.9511C15.7701 31.9504 15.7771 31.9491 15.7853 31.9476L15.8544 31.9375C15.8783 31.935 15.9028 31.9335 15.928 31.933H15.9512L15.9769 31.934ZM36.7606 31.938C36.7857 31.9408 36.8097 31.9448 36.8327 31.9491C36.8403 31.9505 36.8463 31.9518 36.8504 31.9527L36.8579 31.9542L36.9139 31.9683L36.9129 31.9678C36.9132 31.9679 36.9141 31.9681 36.9149 31.9683L36.9386 31.9753L37.0101 32.0015L37.0253 32.0076C37.027 32.0083 37.0288 32.0091 37.0298 32.0096C37.0308 32.0101 37.0313 32.0104 37.0318 32.0106L37.0852 32.0363L37.1049 32.0464L37.1709 32.0862L37.1714 32.0867L37.1876 32.0978C37.1883 32.0983 37.1891 32.099 37.1896 32.0993L37.2354 32.1336L37.2359 32.1341L37.2496 32.1457C37.2508 32.1468 37.2526 32.1478 37.2531 32.1482L37.2536 32.1487L37.301 32.1916L37.2924 32.1835L37.2919 32.183C37.2929 32.1839 37.2957 32.1866 37.299 32.1895L37.3136 32.2037L37.3665 32.2616L37.3735 32.2707C37.3753 32.2729 37.3769 32.2748 37.3776 32.2757L37.3786 32.2767C37.3784 32.2765 37.3773 32.2753 37.3761 32.2737C37.3892 32.2899 37.4022 32.3075 37.4149 32.3256C37.4189 32.3314 37.4228 32.3365 37.425 32.3397C37.426 32.3413 37.4269 32.3428 37.4275 32.3438L37.429 32.3458L37.4577 32.3927L37.4854 32.4441L37.488 32.4496L37.5001 32.4743L37.5036 32.4829C37.5042 32.4841 37.5045 32.4856 37.5051 32.4869L38.9703 35.748L38.9718 35.752C40.5986 39.3343 38.9197 43.6506 35.3781 45.1669L35.3771 45.1674C35.3648 45.1726 35.3533 45.1761 35.3453 45.179C35.3404 45.181 35.3357 45.1837 35.3307 45.1855C33.8317 45.7299 32.2228 45.5391 30.9234 44.7818L28.8574 45.7097L28.8393 45.7173L28.7889 45.7369C28.7829 45.7393 28.7768 45.7414 28.7707 45.7435C28.3569 45.8811 27.9008 45.707 27.685 45.3277L27.6452 45.249C27.4506 44.8157 27.6199 44.3117 28.0227 44.0792L28.0404 44.0696L28.0888 44.0449L28.1059 44.0368L29.4108 43.4501C29.1906 43.1633 28.9963 42.8504 28.8352 42.5121L28.8332 42.5076L28.7833 42.3992L28.7813 42.3952C28.321 41.3645 28.2245 40.2567 28.4366 39.2238L28.4744 39.056C28.8758 37.3892 30.0886 36.0536 31.6644 35.438L31.8231 35.3786L32.0757 35.2863L32.3095 35.1966C34.6728 34.2601 35.4835 33.1565 35.8438 32.4385L35.8549 32.4179C35.8562 32.4156 35.8572 32.4136 35.8579 32.4123C35.8586 32.4111 35.8593 32.41 35.8594 32.4098L35.8675 32.3947C35.8739 32.3835 35.8806 32.3722 35.8877 32.3609L35.9078 32.3302C35.9206 32.3116 35.9354 32.2918 35.9517 32.2717L35.9577 32.2641L36.0026 32.2142L36.0248 32.1921L36.0621 32.1578L36.0626 32.1573C36.0629 32.157 36.0648 32.1559 36.0661 32.1548C36.0689 32.1523 36.0744 32.1472 36.0812 32.1417L36.1402 32.0968L36.1593 32.0842C36.1614 32.0829 36.1632 32.0814 36.1644 32.0807C36.1657 32.0798 36.1664 32.0795 36.1669 32.0792L36.2057 32.0555L36.2359 32.0388L36.2924 32.0116L36.3126 32.0031L36.3756 31.9794L36.4028 31.9708L36.4557 31.9572L36.4567 31.9567C36.4572 31.9566 36.4599 31.9561 36.4618 31.9557C36.466 31.9547 36.4741 31.9526 36.4839 31.9506L36.5636 31.9385L36.5742 31.9375L36.6215 31.935H36.6225L36.623 31.9345C36.6238 31.9345 36.6247 31.9346 36.6256 31.9345C36.6342 31.9341 36.6425 31.9336 36.6503 31.9335C36.6454 31.9336 36.641 31.9333 36.6372 31.9335C36.6433 31.9331 36.6513 31.933 36.6603 31.933H36.683L36.7606 31.938ZM15.2123 36.742C14.1819 39.3416 15.4358 42.3847 17.93 43.4693C18.4818 43.6652 19.0572 43.7074 19.6064 43.6155C17.3099 41.9811 15.7317 39.5145 15.2123 36.742ZM37.3988 36.7415C36.8795 39.5143 35.3014 41.981 33.0046 43.6155C33.5536 43.7074 34.1288 43.665 34.6805 43.4693C37.1753 42.3849 38.4296 39.3414 37.3988 36.7415ZM35.7279 35.3725C34.9989 35.9517 34.0286 36.5122 32.7233 37.0026L32.7198 37.0036L32.4396 37.1059L32.436 37.1074C31.3439 37.4947 30.5211 38.3902 30.2571 39.4859L30.2329 39.5923L30.2334 39.5928C30.0958 40.2633 30.1582 40.9773 30.4542 41.6427L30.4915 41.7233L30.5721 41.8821C30.725 42.1645 30.914 42.4167 31.1296 42.6371C33.7822 41.1454 35.5136 38.4148 35.7279 35.3725ZM16.8816 35.372C17.0958 38.4143 18.8289 41.1447 21.4814 42.6366C21.7551 42.3568 21.9857 42.0256 22.1548 41.6472L22.2113 41.5141C22.4447 40.9255 22.5003 40.3038 22.4003 39.7112L22.3781 39.5928C22.1508 38.4861 21.3575 37.569 20.2853 37.1482L20.175 37.1069C18.7228 36.5919 17.6633 35.9933 16.8816 35.372ZM15.9174 31.9345C15.9176 31.9345 15.9186 31.9341 15.9199 31.934H15.9184L15.9174 31.9345ZM36.6891 31.934C36.6922 31.9342 36.695 31.9344 36.6966 31.9345H36.6976C36.6965 31.9344 36.6945 31.9342 36.6921 31.934C36.6898 31.9338 36.6864 31.9337 36.6825 31.9335C36.685 31.9336 36.6872 31.9339 36.6891 31.934ZM29.995 24.4849C27.0648 23.6645 23.9094 24.3707 21.6069 26.37C22.5987 26.4834 23.7714 26.8093 25.1619 27.4718L25.2632 27.5182L25.4633 27.5983C26.4684 27.9673 27.5855 27.8557 28.4703 27.2752L28.5827 27.1986C29.1063 26.8245 29.5272 26.3007 29.7717 25.6613L29.8025 25.5782C29.93 25.2173 29.9911 24.8486 29.995 24.4849ZM28.0737 21.3856C25.543 20.3885 22.5041 21.6536 21.3942 24.2203C23.7218 22.6273 26.5817 21.9993 29.3609 22.4673C29.0378 22.0143 28.6018 21.6372 28.0737 21.3856ZM50.9063 9.87503C50.9063 10.0064 50.8815 10.1367 50.8327 10.2586L49.9935 12.3554L59.9527 15.0237L61.3599 9.77372L50.9063 6.97231V9.87503ZM3.40631 8.84277H48.8418V3.40729H3.40631V8.84277Z" stroke="#23B24B" stroke-width="0.5" stroke-miterlimit="10" stroke-linecap="round" stroke-linejoin="round"/>
</svg>
