<svg width="65" height="64" viewBox="0 0 65 64" fill="none" xmlns="http://www.w3.org/2000/svg">
<path fill-rule="evenodd" clip-rule="evenodd" d="M32.5022 25.4396C36.1198 25.4396 39.0637 28.3823 39.0637 32C39.0637 35.6176 36.1199 38.5615 32.5022 38.5615C28.8847 38.5614 25.9418 35.6176 25.9418 32C25.9418 28.3823 28.8847 25.4397 32.5022 25.4396ZM32.5022 29.1896C30.9525 29.1897 29.6918 30.4501 29.6918 32C29.6918 33.5498 30.9524 34.8114 32.5022 34.8115C34.0521 34.8115 35.3137 33.5499 35.3137 32C35.3137 30.45 34.0521 29.1896 32.5022 29.1896Z" fill="#23B24B"/>
<path fill-rule="evenodd" clip-rule="evenodd" d="M32.5022 0C36.8507 0.000163089 40.8081 3.53011 43.6449 9.93958C43.8759 10.4612 44.0971 10.9986 44.3095 11.549C44.8923 11.4577 45.4683 11.3807 46.0356 11.3198C53.0045 10.5714 58.0405 12.234 60.2147 16C62.3891 19.766 61.3108 24.9582 57.1783 30.6198C56.8419 31.0806 56.4873 31.5409 56.1168 32C56.4873 32.4592 56.8419 32.9194 57.1783 33.3802C61.3108 39.0418 62.3891 44.2341 60.2147 48C58.3814 51.1757 54.5133 52.8552 49.1668 52.8552C48.1731 52.8552 47.1279 52.7973 46.0356 52.6802C45.4683 52.6193 44.8923 52.5423 44.3095 52.451C44.0971 53.0014 43.8759 53.5388 43.6449 54.0604C40.8081 60.4699 36.8507 63.9998 32.5022 64C28.1537 64 24.1964 60.47 21.3595 54.0604C21.1285 53.5387 20.9074 53.0014 20.6949 52.451C20.1121 52.5422 19.5352 52.6193 18.9679 52.6802C17.8763 52.7973 16.8309 52.8552 15.8376 52.8552C10.4905 52.8552 6.62231 51.1759 4.78869 48C2.61448 44.2341 3.69389 39.0417 7.82619 33.3802C8.16249 32.9195 8.51724 32.4591 8.88765 32C8.51724 31.541 8.16249 31.0806 7.82619 30.6198C3.69389 24.9583 2.61448 19.766 4.78869 16C6.96276 12.2341 11.9991 10.5719 18.9679 11.3198C19.5352 11.3807 20.1121 11.4577 20.6949 11.549C20.9074 10.9986 21.1286 10.4612 21.3595 9.93958C24.1964 3.52997 28.1537 0 32.5022 0ZM32.5022 48.9615C29.7614 50.1166 27.0443 51.0334 24.4262 51.6875C24.5443 51.9768 24.6648 52.263 24.7887 52.5427C26.9566 57.4407 29.7681 60.25 32.5022 60.25C35.2363 60.2498 38.048 57.4405 40.2158 52.5427C40.3396 52.263 40.4591 51.9767 40.5772 51.6875C37.9593 51.0334 35.2428 50.1165 32.5022 48.9615ZM10.8543 35.5917C7.69658 39.918 6.66968 43.7572 8.0366 46.125C9.40371 48.4927 13.242 49.5225 18.5679 48.951C18.872 48.9184 19.1802 48.8799 19.4897 48.8375C18.7473 46.2432 18.1837 43.4314 17.8137 40.4802C15.4428 38.6841 13.2892 36.7904 11.4137 34.85C11.2222 35.0969 11.0346 35.3445 10.8543 35.5917ZM53.5897 34.85C51.7143 36.7902 49.5615 38.6841 47.1908 40.4802C46.8207 43.4313 46.2572 46.2432 45.5147 48.8375C45.8241 48.8799 46.1316 48.9184 46.4356 48.951C51.7616 49.5227 55.5996 48.4929 56.9668 46.125C58.3339 43.7572 57.307 39.9181 54.1491 35.5917C53.9687 35.3445 53.7811 35.0968 53.5897 34.85ZM22.0668 43.4458C22.3744 45.0803 22.7481 46.6498 23.1866 48.1344C24.6916 47.7718 26.2382 47.3113 27.8074 46.7604C26.8344 46.2579 25.8631 45.7279 24.8981 45.1708C23.9329 44.6136 22.9887 44.0375 22.0668 43.4458ZM42.9366 43.4458C42.0149 44.0373 41.0713 44.6137 40.1064 45.1708C39.1414 45.728 38.1701 46.2579 37.197 46.7604C38.7661 47.3111 40.3119 47.7718 41.8168 48.1344C42.2553 46.6497 42.629 45.0803 42.9366 43.4458ZM32.5022 19.1281C30.593 19.993 28.6737 20.9798 26.7731 22.0771C24.8724 23.1745 23.0579 24.3436 21.3543 25.5646C21.1487 27.6503 21.0439 29.8055 21.0439 32C21.0439 34.1945 21.1487 36.3496 21.3543 38.4354C23.0579 39.6564 24.8724 40.8257 26.7731 41.9229C28.6737 43.0203 30.593 44.0069 32.5022 44.8719C34.4114 44.0069 36.331 43.0203 38.2314 41.9229C40.1319 40.8256 41.9455 39.6563 43.6491 38.4354C43.8546 36.3496 43.9606 34.1945 43.9606 32C43.9606 29.8055 43.8546 27.6504 43.6491 25.5646C41.9455 24.3437 40.1319 23.1744 38.2314 22.0771C36.3309 20.9799 34.4114 19.993 32.5022 19.1281ZM17.372 28.6865C16.1105 29.77 14.9383 30.8781 13.872 32C14.9384 33.1221 16.1105 34.2309 17.372 35.3146C17.3206 34.2205 17.2939 33.1145 17.2939 32C17.2939 30.8858 17.3207 29.7803 17.372 28.6865ZM47.6324 28.6865C47.6838 29.7803 47.7106 30.8858 47.7106 32C47.7106 33.1143 47.6838 34.2197 47.6324 35.3135C48.8939 34.23 50.0662 33.122 51.1324 32C50.0662 30.8781 48.8939 29.77 47.6324 28.6865ZM15.8262 14.8938C11.9326 14.8938 9.15608 15.936 8.0366 17.875C6.66963 20.2429 7.69633 24.0828 10.8543 28.4094C11.0347 28.6563 11.2224 28.9032 11.4137 29.15C13.2892 27.2096 15.4428 25.3159 17.8137 23.5198C18.1837 20.5686 18.7473 17.757 19.4897 15.1625C19.1802 15.1201 18.872 15.0816 18.5679 15.049C17.6035 14.9456 16.6872 14.8938 15.8262 14.8938ZM49.1772 14.8938C48.316 14.8938 47.4002 14.9455 46.4356 15.049C46.1316 15.0816 45.8241 15.1201 45.5147 15.1625C46.2573 17.7569 46.8207 20.5687 47.1908 23.5198C49.5614 25.3159 51.7143 27.2097 53.5897 29.15C53.781 28.9032 53.9688 28.6563 54.1491 28.4094C57.3071 24.0827 58.3339 20.2429 56.9668 17.875C55.8473 15.9362 53.0705 14.8938 49.1772 14.8938ZM23.1866 15.8656C22.7481 17.3503 22.3744 18.9197 22.0668 20.5542C22.9887 19.9627 23.9329 19.3863 24.8981 18.8292C25.8631 18.272 26.8344 17.742 27.8074 17.2396C26.2382 16.6887 24.6916 16.2281 23.1866 15.8656ZM41.8168 15.8656C40.3119 16.2281 38.7661 16.6888 37.197 17.2396C38.1701 17.7421 39.1413 18.2719 40.1064 18.8292C41.0714 19.3862 42.0149 19.9628 42.9366 20.5542C42.629 18.9197 42.2553 17.3503 41.8168 15.8656ZM32.5022 3.75C29.7681 3.75 26.9566 6.55933 24.7887 11.4573C24.6648 11.737 24.5443 12.0233 24.4262 12.3125C27.0443 12.9666 29.7614 13.8833 32.5022 15.0385C35.2428 13.8834 37.9594 12.9666 40.5772 12.3125C40.4592 12.0233 40.3396 11.737 40.2158 11.4573C38.048 6.55947 35.2363 3.75021 32.5022 3.75Z" fill="#23B24B"/>
</svg>
