<svg width="65" height="64" viewBox="0 0 65 64" fill="none" xmlns="http://www.w3.org/2000/svg">
<g clip-path="url(#clip0_8144_1737)">
<path d="M53.0348 41.975V25.2717C53.0348 21.6417 55.9775 18.699 59.6075 18.699H62.5573V44.2019C62.5573 47.494 61.3346 50.6538 59.1533 52.9983L50.0232 62.1284M47.1996 16.9566L32.5009 30.6575L17.8034 16.9563C12.1503 11.6865 15.642 2.1003 23.3672 1.87632C23.4719 1.87332 23.5767 1.87182 23.6814 1.87183C27.3521 1.87183 30.5887 3.73031 32.5018 6.55747C34.415 3.73031 37.6515 1.87183 41.3223 1.87183C41.4272 1.87183 41.5318 1.87332 41.6362 1.87632C49.3615 2.10005 52.8531 11.6868 47.1996 16.9566Z" stroke="#23B24B" stroke-width="3.5" stroke-miterlimit="10" stroke-linecap="round" stroke-linejoin="round"/>
<path d="M44.3912 52.481L51.8463 45.0259L51.8464 45.026C52.5845 44.223 53.0352 43.1517 53.0352 41.9751C53.0352 39.4846 51.0163 37.4656 48.5258 37.4656C47.2806 37.4656 46.1532 37.9704 45.3371 38.7865L32.501 51.6228M11.9678 41.975V25.2717C11.9678 21.6417 9.02513 18.699 5.39513 18.699H2.44531V44.2018C2.44531 47.4939 3.66804 50.6537 5.84934 52.9983L14.9794 62.1283" stroke="#23B24B" stroke-width="3.5" stroke-miterlimit="10" stroke-linecap="round" stroke-linejoin="round"/>
<path d="M20.6109 52.4812L13.1557 45.026L13.1556 45.0262C12.4175 44.2232 11.9668 43.1518 11.9668 41.9753C11.9668 39.4848 13.9858 37.4658 16.4763 37.4658C17.7214 37.4658 18.8488 37.9706 19.6649 38.7866L32.5011 51.6231V62.1148" stroke="#23B24B" stroke-width="3.5" stroke-miterlimit="10" stroke-linecap="round" stroke-linejoin="round"/>
</g>
<defs>
<clipPath id="clip0_8144_1737">
<rect width="64" height="64" fill="white" transform="translate(0.5)"/>
</clipPath>
</defs>
</svg>
