<svg width="28" height="29" viewBox="0 0 28 29" fill="none" xmlns="http://www.w3.org/2000/svg">
<g clip-path="url(#clip0_12002_1397)">
<path d="M14 28.0117C21.732 28.0117 28 21.7437 28 14.0117C28 6.27973 21.732 0.0117188 14 0.0117188C6.26801 0.0117188 0 6.27973 0 14.0117C0 21.7437 6.26801 28.0117 14 28.0117Z" fill="#4065D6"/>
<path d="M20.4565 18.0137C20.1286 18.0598 18.5352 18.0137 18.4523 18.0137C18.0403 18.0179 17.6433 17.8597 17.347 17.5735C17.0099 17.2492 16.706 16.8919 16.3836 16.5548C16.2857 16.452 16.1804 16.3566 16.0686 16.2692C15.8052 16.0685 15.5454 16.1145 15.422 16.424C15.3254 16.7594 15.2588 17.1028 15.2231 17.45C15.2173 17.5963 15.1538 17.7343 15.0464 17.8338C14.9389 17.9333 14.7965 17.986 14.6502 17.9806C14.4328 17.9916 14.2154 17.9971 13.9999 17.9916C13.2159 17.9875 12.4439 17.7982 11.747 17.439C10.9947 17.0186 10.3389 16.445 9.82202 15.7553C8.99507 14.6633 8.2804 13.4907 7.68886 12.2553C7.65755 12.1927 7.03676 10.8719 7.02202 10.8111C6.98353 10.7245 6.97986 10.6265 7.01176 10.5373C7.04366 10.4481 7.10869 10.3746 7.19334 10.3321C7.30386 10.2898 9.35044 10.3321 9.3836 10.3321C9.536 10.3307 9.68487 10.378 9.80848 10.4671C9.93209 10.5563 10.024 10.6826 10.0707 10.8277C10.4492 11.7926 10.9661 12.6974 11.6052 13.5135C11.6943 13.6235 11.7992 13.7197 11.9165 13.799C11.9467 13.8282 11.9842 13.8487 12.025 13.8586C12.0659 13.8684 12.1086 13.8672 12.1488 13.855C12.189 13.8427 12.2252 13.82 12.2536 13.7891C12.2821 13.7582 12.3018 13.7203 12.3107 13.6792C12.3917 13.4129 12.4393 13.1376 12.4525 12.8595C12.4636 12.3069 12.4525 11.9385 12.4212 11.3858C12.4324 11.1975 12.3688 11.0124 12.2443 10.8706C12.1198 10.7289 11.9444 10.642 11.7562 10.6287C11.5941 10.6011 11.572 10.4685 11.6844 10.3358C11.8999 10.0614 12.1983 10.0171 12.5225 10.0006C13.0125 9.97293 13.5044 10.0006 13.9962 10.0006H14.1031C14.319 10 14.5344 10.0216 14.746 10.065C14.8697 10.0904 14.9818 10.155 15.0658 10.2493C15.1498 10.3435 15.2011 10.4624 15.212 10.5882C15.2368 10.7274 15.248 10.8687 15.2452 11.01C15.2323 11.6124 15.2028 12.2148 15.1954 12.819C15.191 13.0576 15.2127 13.2961 15.2599 13.53C15.3318 13.8506 15.551 13.9316 15.7757 13.6977C16.0558 13.3971 16.3125 13.0756 16.5439 12.7361C16.9598 12.1179 17.3023 11.4533 17.5644 10.7558C17.7062 10.3985 17.8149 10.3192 18.1999 10.3192H20.3718C20.5013 10.3171 20.6305 10.3345 20.7549 10.3708C20.7988 10.3825 20.8399 10.4031 20.8755 10.4314C20.9111 10.4596 20.9405 10.4948 20.9619 10.5349C20.9833 10.575 20.9963 10.619 21 10.6643C21.0037 10.7096 20.998 10.7552 20.9833 10.7982C20.8564 11.2603 20.6384 11.6924 20.3423 12.0692C19.9002 12.6937 19.436 13.3035 18.9828 13.9114C18.9255 13.9909 18.8732 14.0739 18.8262 14.16C18.6568 14.4658 18.6697 14.639 18.9147 14.8969C19.3089 15.3021 19.7307 15.6835 20.1102 16.0998C20.39 16.4031 20.6428 16.7304 20.8654 17.0779C21.1454 17.5274 20.9741 17.94 20.4565 18.0137Z" fill="white"/>
</g>
<defs>
<clipPath id="clip0_12002_1397">
<rect width="28" height="28" fill="white" transform="translate(0 0.0117188)"/>
</clipPath>
</defs>
</svg>
