<svg width="275" height="80" viewBox="0 0 275 80" fill="none" xmlns="http://www.w3.org/2000/svg">
<path d="M9.072 63.9971L1.188 20.2571H9.45L14.148 49.9571L18.522 20.2571H27.27L19.278 63.9971H9.072ZM29.3321 63.9971L37.5941 20.2571H48.6101L56.7641 63.9971H47.8541L46.3961 54.7631H39.9701L38.4581 63.9971H29.3321ZM40.8341 48.9851H45.4781L43.1561 31.9211L40.8341 48.9851ZM62.8003 63.9971V20.2571H72.4663V57.4631H82.5103V63.9971H62.8003ZM88.3617 63.9971V20.2571H108.018V26.8451H98.0277V37.6991H105.642V44.3951H98.0277V57.4631H108.126V63.9971H88.3617ZM118.076 63.9971V27.4391H111.488V20.2571H134.33V27.4391H127.796V63.9971H118.076ZM139.801 63.9971V20.2571H159.457V26.8451H149.467V37.6991H157.081V44.3951H149.467V57.4631H159.565V63.9971H139.801ZM165.573 63.9971V20.2571H175.239V38.1311L182.583 20.2571H192.033L183.933 40.0211L192.411 63.9971H182.583L176.265 44.6651L175.239 46.3931V63.9971H165.573ZM197.076 63.9971V55.6811H205.392V63.9971H197.076ZM212.214 63.9971V20.2571H224.256C227.208 20.2571 229.764 20.5811 231.924 21.2291C234.084 21.8771 235.758 23.0471 236.946 24.7391C238.17 26.3951 238.782 28.7531 238.782 31.8131C238.782 33.6131 238.638 35.2151 238.35 36.6191C238.062 38.0231 237.522 39.2471 236.73 40.2911C235.974 41.2991 234.876 42.1451 233.436 42.8291L239.43 63.9971H229.44L224.634 44.3951H221.88V63.9971H212.214ZM221.88 38.8331H224.58C225.948 38.8331 227.01 38.5991 227.766 38.1311C228.522 37.6271 229.044 36.9251 229.332 36.0251C229.656 35.0891 229.818 33.9731 229.818 32.6771C229.818 30.8051 229.476 29.3471 228.792 28.3031C228.108 27.2591 226.848 26.7371 225.012 26.7371H221.88V38.8331ZM258.532 64.6451C255.184 64.6451 252.556 64.1051 250.648 63.0251C248.776 61.9091 247.462 60.3071 246.706 58.2191C245.95 56.0951 245.572 53.5031 245.572 50.4431V20.2571H255.13V51.9011C255.13 52.8011 255.202 53.7011 255.346 54.6011C255.49 55.5011 255.796 56.2391 256.264 56.8151C256.768 57.3911 257.524 57.6791 258.532 57.6791C259.576 57.6791 260.332 57.3911 260.8 56.8151C261.268 56.2391 261.556 55.5011 261.664 54.6011C261.808 53.7011 261.88 52.8011 261.88 51.9011V20.2571H271.492V50.4431C271.492 53.5031 271.096 56.0951 270.304 58.2191C269.548 60.3071 268.234 61.9091 266.362 63.0251C264.49 64.1051 261.88 64.6451 258.532 64.6451Z" fill="#23B24B"/>
</svg>
