<svg width="275" height="80" viewBox="0 0 275 80" fill="none" xmlns="http://www.w3.org/2000/svg">
<path d="M9.072 64L1.188 20.26H9.45L14.148 49.96L18.522 20.26H27.27L19.278 64H9.072ZM29.3321 64L37.5941 20.26H48.6101L56.7641 64H47.8541L46.3961 54.766H39.9701L38.4581 64H29.3321ZM40.8341 48.988H45.4781L43.1561 31.924L40.8341 48.988ZM62.8003 64V20.26H72.4663V57.466H82.5103V64H62.8003ZM88.3617 64V20.26H108.018V26.848H98.0277V37.702H105.642V44.398H98.0277V57.466H108.126V64H88.3617ZM118.076 64V27.442H111.488V20.26H134.33V27.442H127.796V64H118.076ZM139.801 64V20.26H159.457V26.848H149.467V37.702H157.081V44.398H149.467V57.466H159.565V64H139.801ZM165.573 64V20.26H175.239V38.134L182.583 20.26H192.033L183.933 40.024L192.411 64H182.583L176.265 44.668L175.239 46.396V64H165.573ZM197.076 64V55.684H205.392V64H197.076ZM212.214 64V20.26H224.256C227.208 20.26 229.764 20.584 231.924 21.232C234.084 21.88 235.758 23.05 236.946 24.742C238.17 26.398 238.782 28.756 238.782 31.816C238.782 33.616 238.638 35.218 238.35 36.622C238.062 38.026 237.522 39.25 236.73 40.294C235.974 41.302 234.876 42.148 233.436 42.832L239.43 64H229.44L224.634 44.398H221.88V64H212.214ZM221.88 38.836H224.58C225.948 38.836 227.01 38.602 227.766 38.134C228.522 37.63 229.044 36.928 229.332 36.028C229.656 35.092 229.818 33.976 229.818 32.68C229.818 30.808 229.476 29.35 228.792 28.306C228.108 27.262 226.848 26.74 225.012 26.74H221.88V38.836ZM258.532 64.648C255.184 64.648 252.556 64.108 250.648 63.028C248.776 61.912 247.462 60.31 246.706 58.222C245.95 56.098 245.572 53.506 245.572 50.446V20.26H255.13V51.904C255.13 52.804 255.202 53.704 255.346 54.604C255.49 55.504 255.796 56.242 256.264 56.818C256.768 57.394 257.524 57.682 258.532 57.682C259.576 57.682 260.332 57.394 260.8 56.818C261.268 56.242 261.556 55.504 261.664 54.604C261.808 53.704 261.88 52.804 261.88 51.904V20.26H271.492V50.446C271.492 53.506 271.096 56.098 270.304 58.222C269.548 60.31 268.234 61.912 266.362 63.028C264.49 64.108 261.88 64.648 258.532 64.648Z" fill="white"/>
</svg>
