<svg width="0" height="0" class="hidden">
  <symbol fill="none" xmlns="http://www.w3.org/2000/svg" viewBox="0 0 59 59" id="ic_arr_hor">
    <path d="M18.8293 29.7348C18.8293 30.1996 19.007 30.6649 19.3618 31.0198L37.5379 49.1958C38.2481 49.9061 39.3982 49.9061 40.108 49.1958C40.8177 48.4856 40.8182 47.3355 40.108 46.6258L23.217 29.7348L40.108 12.8438C40.8182 12.1336 40.8182 10.9835 40.108 10.2737C39.3977 9.56394 38.2476 9.56348 37.5379 10.2737L19.3618 28.4497C19.007 28.8046 18.8293 29.2699 18.8293 29.7348Z" fill="currentColor"></path>
  </symbol>
  <symbol fill="none" xmlns="http://www.w3.org/2000/svg" viewBox="0 0 9 11" id="ic_arr_ver">
    <path d="M9 4.98482L4.4995 9.47183L0 4.98482L1.51519 3.47183L4.4995 6.44886L7.48381 3.47183L9 4.98482Z" fill="currentColor"></path>
  </symbol>
  <symbol fill="none" xmlns="http://www.w3.org/2000/svg" viewBox="0 0 17 16" id="ic_arrow_ver">
    <path d="M9.26427 15.787L15.5673 9.48393C15.8513 9.19995 15.8513 8.73944 15.5673 8.45542C15.2832 8.17139 14.8228 8.17139 14.5387 8.45542L9.47712 13.517L9.47644 0.727175C9.47644 0.325575 9.15082 -2.89783e-07 8.74917 -3.07339e-07C8.34752 -3.24896e-07 8.0219 0.325672 8.02195 0.727321L8.02262 13.5168L2.96119 8.45547C2.67717 8.17144 2.21671 8.17144 1.93269 8.45547C1.79068 8.59743 1.71964 8.78356 1.71964 8.9697C1.71964 9.15583 1.79068 9.34196 1.93269 9.48393L8.23576 15.787C8.37215 15.9233 8.55714 16 8.75002 16C8.9429 16 9.12788 15.9233 9.26427 15.787Z" fill="currentColor"></path>
  </symbol>
  <symbol fill="none" xmlns="http://www.w3.org/2000/svg" viewBox="0 0 18 18" id="ic_close">
    <path fill-rule="evenodd" clip-rule="evenodd" d="M0.685475 0.685963C0.868564 0.503102 1.11675 0.400391 1.37552 0.400391C1.63428 0.400391 1.88247 0.503102 2.06556 0.685963L17.6891 16.3095C17.7851 16.3989 17.862 16.5067 17.9154 16.6265C17.9687 16.7463 17.9974 16.8756 17.9998 17.0067C18.0021 17.1378 17.9779 17.268 17.9288 17.3896C17.8797 17.5112 17.8066 17.6217 17.7139 17.7144C17.6212 17.8071 17.5107 17.8802 17.3891 17.9293C17.2675 17.9784 17.1373 18.0026 17.0062 18.0002C16.8751 17.9979 16.7458 17.9692 16.626 17.9159C16.5062 17.8625 16.3984 17.7855 16.309 17.6896L0.685475 2.06604C0.502613 1.88296 0.399902 1.63477 0.399902 1.376C0.399902 1.11724 0.502613 0.869052 0.685475 0.685963Z" fill="currentColor"></path>
    <path fill-rule="evenodd" clip-rule="evenodd" d="M17.7135 0.686756C17.8969 0.870353 17.9999 1.11923 17.9999 1.37871C17.9999 1.6382 17.8969 1.88707 17.7135 2.07067L2.04662 17.7376C1.861 17.9106 1.61549 18.0047 1.36181 18.0002C1.10814 17.9958 0.866101 17.893 0.686698 17.7136C0.507295 17.5342 0.404531 17.2922 0.400055 17.0385C0.395579 16.7848 0.489741 16.5393 0.662704 16.3537L16.3296 0.686756C16.5132 0.503387 16.7621 0.400391 17.0216 0.400391C17.2811 0.400391 17.5299 0.503387 17.7135 0.686756Z" fill="currentColor"></path>
  </symbol>
  <symbol fill="none" xmlns="http://www.w3.org/2000/svg" viewBox="0 0 18 18" id="ic_email">
    <path d="M13.875 0.757812H4.125C3.03135 0.759004 1.98283 1.19398 1.2095 1.96731C0.436171 2.74064 0.00119113 3.78916 0 4.88281L0 13.1328C0.00119113 14.2265 0.436171 15.275 1.2095 16.0483C1.98283 16.8216 3.03135 17.2566 4.125 17.2578H13.875C14.9687 17.2566 16.0172 16.8216 16.7905 16.0483C17.5638 15.275 17.9988 14.2265 18 13.1328V4.88281C17.9988 3.78916 17.5638 2.74064 16.7905 1.96731C16.0172 1.19398 14.9687 0.759004 13.875 0.757812ZM13.875 3.00781C14.3298 3.00933 14.7683 3.17772 15.1073 3.48106L10.2323 8.35606C9.90114 8.67231 9.46088 8.84878 9.003 8.84878C8.54512 8.84878 8.10486 8.67231 7.77375 8.35606L2.89875 3.48106C3.23614 3.17909 3.67222 3.01079 4.125 3.00781H13.875ZM13.875 15.0078H4.125C3.62772 15.0078 3.15081 14.8103 2.79917 14.4586C2.44754 14.107 2.25 13.6301 2.25 13.1328V6.02056L6.17925 9.94981C6.54957 10.3203 6.98925 10.6142 7.47318 10.8147C7.95711 11.0152 8.4758 11.1184 8.99963 11.1184C9.52345 11.1184 10.0421 11.0152 10.5261 10.8147C11.01 10.6142 11.4497 10.3203 11.82 9.94981L15.75 6.02056V13.1328C15.75 13.6301 15.5525 14.107 15.2008 14.4586C14.8492 14.8103 14.3723 15.0078 13.875 15.0078Z" fill="currentColor"></path>
  </symbol>
  <symbol fill="none" xmlns="http://www.w3.org/2000/svg" viewBox="0 0 40 40" id="ic_file">
    <path d="M22.3438 30.625C22.9909 30.625 23.5156 31.1497 23.5156 31.7969C23.5156 32.4441 22.9909 32.9688 22.3438 32.9688H12.9688C12.3216 32.9688 11.7969 32.4441 11.7969 31.7969C11.7969 31.1497 12.3216 30.625 12.9688 30.625H22.3438Z" fill="currentColor"></path>
    <path d="M27.0312 25.9375C27.6784 25.9375 28.2031 26.4622 28.2031 27.1094C28.2031 27.7566 27.6784 28.2812 27.0312 28.2812H12.9688C12.3216 28.2812 11.7969 27.7566 11.7969 27.1094C11.7969 26.4622 12.3216 25.9375 12.9688 25.9375H27.0312Z" fill="currentColor"></path>
    <path d="M27.0312 21.25C27.6784 21.25 28.2031 21.7747 28.2031 22.4219C28.2031 23.0691 27.6784 23.5938 27.0312 23.5938H12.9688C12.3216 23.5938 11.7969 23.0691 11.7969 22.4219C11.7969 21.7747 12.3216 21.25 12.9688 21.25H27.0312Z" fill="currentColor"></path>
    <path d="M27.0312 16.5625C27.6784 16.5625 28.2031 17.0872 28.2031 17.7344C28.2031 18.3816 27.6784 18.9062 27.0312 18.9062H12.9688C12.3216 18.9062 11.7969 18.3816 11.7969 17.7344C11.7969 17.0872 12.3216 16.5625 12.9688 16.5625H27.0312Z" fill="currentColor"></path>
    <path fill-rule="evenodd" clip-rule="evenodd" d="M24.6875 0C24.9983 0.000175658 25.2967 0.124054 25.5166 0.34375L34.8906 9.71777C35.0998 9.92691 35.2344 10.2273 35.2344 10.5469V36.4844C35.2344 38.4229 33.6573 40 31.7188 40H8.28125C6.34273 40 4.76562 38.4229 4.76562 36.4844V3.51562C4.76562 1.57711 6.34273 0 8.28125 0H24.6875ZM8.28125 2.34375C7.63508 2.34375 7.10938 2.86945 7.10938 3.51562V36.4844C7.10938 37.1305 7.63508 37.6562 8.28125 37.6562H31.7188C32.3649 37.6562 32.8906 37.1305 32.8906 36.4844V11.7188H27.0312C25.0927 11.7188 23.5156 10.1416 23.5156 8.20312V2.34375H8.28125ZM25.8594 8.20312C25.8594 8.8493 26.3851 9.375 27.0312 9.375H31.2334L25.8594 4.00098V8.20312Z" fill="currentColor"></path>
  </symbol>
  <symbol fill="none" xmlns="http://www.w3.org/2000/svg" viewBox="0 0 18 18" id="ic_location">
    <path d="M14.1706 13.0452L10.1937 17.0232C10.037 17.18 9.85092 17.3044 9.64612 17.3893C9.44131 17.4741 9.22179 17.5178 9.00009 17.5178C8.77839 17.5178 8.55887 17.4741 8.35406 17.3893C8.14925 17.3044 7.96318 17.18 7.80646 17.0232L3.82959 13.0452C3.15052 12.3662 2.61183 11.5601 2.24429 10.6729C1.87675 9.7857 1.68755 8.83481 1.6875 7.87451C1.68745 6.91421 1.87654 5.9633 2.24399 5.07607C2.61143 4.18885 3.15003 3.38269 3.82903 2.70361C4.50803 2.02454 5.31413 1.48585 6.20131 1.11831C7.0885 0.750773 8.03939 0.561576 8.99969 0.561523C9.95999 0.561471 10.9109 0.750565 11.7981 1.11801C12.6854 1.48545 13.4915 2.02405 14.1706 2.70305C14.8497 3.38209 15.3884 4.18826 15.756 5.07552C16.1235 5.96277 16.3127 6.91374 16.3127 7.87411C16.3127 8.83449 16.1235 9.78545 15.756 10.6727C15.3884 11.56 14.8497 12.3661 14.1706 13.0452ZM12.9781 3.89667C12.4557 3.37428 11.8355 2.95989 11.153 2.67717C10.4704 2.39445 9.73887 2.24893 9.00009 2.24893C8.26131 2.24893 7.52976 2.39445 6.84721 2.67717C6.16466 2.95989 5.54449 3.37428 5.02209 3.89667C4.49969 4.41907 4.0853 5.03925 3.80258 5.7218C3.51986 6.40434 3.37435 7.13589 3.37435 7.87468C3.37435 8.61346 3.51986 9.34501 3.80258 10.0276C4.0853 10.7101 4.49969 11.3303 5.02209 11.8527L9.00009 15.8284L12.9781 11.8527C13.5006 11.3303 13.915 10.7102 14.1978 10.0276C14.4806 9.34506 14.6261 8.61349 14.6261 7.87468C14.6261 7.13586 14.4806 6.40429 14.1978 5.72174C13.915 5.03919 13.5006 4.41902 12.9781 3.89667ZM9.00009 10.1247C8.70046 10.1315 8.40249 10.0783 8.12369 9.96833C7.84488 9.85837 7.59085 9.69381 7.37652 9.48432C7.16219 9.27483 6.99186 9.02463 6.87556 8.74841C6.75925 8.47219 6.6993 8.17552 6.69922 7.87581C6.69915 7.57611 6.75895 7.2794 6.87512 7.00312C6.99129 6.72685 7.16149 6.47656 7.37571 6.26697C7.58994 6.05737 7.84389 5.89269 8.12264 5.78258C8.40139 5.67248 8.69933 5.61917 8.99896 5.6258C9.58685 5.6388 10.1463 5.88143 10.5575 6.30174C10.9687 6.72206 11.1991 7.28666 11.1992 7.87469C11.1994 8.46271 10.9693 9.02743 10.5583 9.44795C10.1473 9.86847 9.58796 10.1114 9.00009 10.1247Z" fill="currentColor" stroke="currentColor" stroke-width="0.5"></path>
  </symbol>
  <symbol fill="none" xmlns="http://www.w3.org/2000/svg" viewBox="0 0 25 24" id="ic_minus">
    <path d="M19.9082 13.7266C11.7612 13.7266 14.622 13.7266 5.46023 13.7266C4.50823 13.7266 3.74023 12.9586 3.74023 12.0066C3.74023 11.0546 4.50823 10.2866 5.46023 10.2866H19.9082C20.8602 10.2866 21.6282 11.0546 21.6282 12.0066C21.6282 12.9586 20.8602 13.7266 19.9082 13.7266Z" fill="currentColor"></path>
  </symbol>
  <symbol fill="none" xmlns="http://www.w3.org/2000/svg" viewBox="0 0 18 18" id="ic_phone">
    <path d="M13.1256 18.0078C7.0139 18.1796 -3.8056 7.34806 1.39715 1.46131C1.4159 1.44331 2.21615 0.745813 2.21615 0.745813C2.7184 0.28152 3.37879 0.0262167 4.06274 0.0319302C4.74669 0.0376438 5.40273 0.303944 5.89715 0.776563L7.51115 2.51506C7.98657 3.01192 8.2495 3.6746 8.24403 4.36225C8.23857 5.0499 7.96516 5.70832 7.4819 6.19756L7.1909 6.49306C8.05755 8.41223 9.59086 9.95193 11.5064 10.8266L11.8146 10.5266C12.3146 10.0504 12.9786 9.78478 13.669 9.78478C14.3595 9.78478 15.0234 10.0504 15.5234 10.5266L17.2011 12.0828C17.6981 12.5683 17.9834 13.2303 17.9949 13.9249C18.0064 14.6195 17.7432 15.2906 17.2626 15.7923C17.2626 15.7923 16.5651 16.5918 16.5471 16.6106C16.0977 17.0583 15.5638 17.4124 14.9765 17.6523C14.3892 17.8921 13.7601 18.013 13.1256 18.0078ZM2.96315 3.08281C-0.681101 7.59631 10.9836 18.5876 14.9294 15.0453C14.9294 15.0453 15.6224 14.2511 15.6411 14.2331C15.7114 14.1627 15.7509 14.0674 15.7509 13.9679C15.7509 13.8685 15.7114 13.7731 15.6411 13.7028L13.9626 12.1473C13.7376 11.9598 13.6109 11.9576 13.4024 12.1173L12.5504 12.9558C12.3967 13.107 12.2028 13.2108 11.9918 13.255C11.7808 13.2991 11.5615 13.2817 11.3601 13.2048C9.86362 12.6479 8.50431 11.7758 7.37437 10.6475C6.24443 9.51927 5.37027 8.16126 4.81115 6.66556C4.72977 6.46253 4.70934 6.24018 4.75237 6.02572C4.79539 5.81126 4.9 5.61399 5.0534 5.45806L5.8844 4.61356C5.92224 4.57995 5.95265 4.5388 5.97369 4.49276C5.99472 4.44672 6.00591 4.39679 6.00655 4.34618C6.00718 4.29556 5.99725 4.24537 5.97738 4.19882C5.95751 4.15226 5.92814 4.11037 5.89115 4.07581L4.27565 2.33731C4.20417 2.27758 4.11256 2.24741 4.01957 2.25299C3.92658 2.25856 3.83923 2.29946 3.7754 2.36731C3.7574 2.38606 2.96315 3.08281 2.96315 3.08281ZM18.0006 7.13281C17.9985 5.24382 17.2471 3.43281 15.9114 2.09709C14.5756 0.761365 12.7646 0.00999597 10.8756 0.0078125C10.5773 0.0078125 10.2911 0.126339 10.0802 0.337317C9.86917 0.548296 9.75065 0.834444 9.75065 1.13281C9.75065 1.43118 9.86917 1.71733 10.0802 1.92831C10.2911 2.13929 10.5773 2.25781 10.8756 2.25781C12.1681 2.2594 13.4071 2.77352 14.321 3.68742C15.2349 4.60132 15.7491 5.84037 15.7506 7.13281C15.7506 7.43118 15.8692 7.71733 16.0802 7.92831C16.2911 8.13929 16.5773 8.25781 16.8756 8.25781C17.174 8.25781 17.4602 8.13929 17.6711 7.92831C17.8821 7.71733 18.0006 7.43118 18.0006 7.13281ZM14.2506 7.13281C14.2497 6.23801 13.8938 5.38014 13.261 4.74742C12.6283 4.1147 11.7704 3.75881 10.8756 3.75781C10.5773 3.75781 10.2911 3.87634 10.0802 4.08732C9.86917 4.2983 9.75065 4.58444 9.75065 4.88281C9.75065 5.18118 9.86917 5.46733 10.0802 5.67831C10.2911 5.88929 10.5773 6.00781 10.8756 6.00781C11.174 6.00781 11.4602 6.12634 11.6711 6.33732C11.8821 6.5483 12.0006 6.83444 12.0006 7.13281C12.0006 7.43118 12.1192 7.71733 12.3302 7.92831C12.5411 8.13929 12.8273 8.25781 13.1256 8.25781C13.424 8.25781 13.7102 8.13929 13.9211 7.92831C14.1321 7.71733 14.2506 7.43118 14.2506 7.13281Z" fill="currentColor"></path>
  </symbol>
  <symbol fill="none" xmlns="http://www.w3.org/2000/svg" viewBox="0 0 25 24" id="ic_plus">
    <path d="M19.9082 10.2748H14.4042V4.77078C14.4042 3.81878 13.6362 3.05078 12.6842 3.05078C11.7322 3.05078 10.9642 3.81878 10.9642 4.77078V10.2748H5.46023C4.50823 10.2748 3.74023 11.0428 3.74023 11.9948C3.74023 12.9468 4.50823 13.7148 5.46023 13.7148H10.9642V19.2188C10.9642 20.1708 11.7322 20.9388 12.6842 20.9388C13.6362 20.9388 14.4042 20.1708 14.4042 19.2188V13.7148H19.9082C20.8602 13.7148 21.6282 12.9468 21.6282 11.9948C21.6282 11.0428 20.8602 10.2748 19.9082 10.2748Z" fill="currentColor"></path>
  </symbol>
  <symbol fill="none" xmlns="http://www.w3.org/2000/svg" viewBox="0 0 36 36" id="ic_rutube">
    <rect y="-0.00390625" width="36" height="36" rx="18" fill="var(--icon_bg)"></rect>
    <path d="M20.1175 19.0814H11.6086V15.6934H20.1175C20.6146 15.6934 20.9602 15.7806 21.1336 15.9328C21.307 16.085 21.4145 16.3674 21.4145 16.7798V17.9963C21.4145 18.4308 21.307 18.7132 21.1336 18.8654C20.9602 19.0176 20.6146 19.0827 20.1175 19.0827V19.0814ZM20.7013 12.4994H8V26.9878H11.6086V22.2741H18.2589L21.4145 26.9878H25.4554L21.9762 22.252C23.2589 22.0608 23.8349 21.6653 24.3099 21.0134C24.7849 20.3616 25.0231 19.3195 25.0231 17.9286V16.8423C25.0231 16.0174 24.9363 15.3656 24.7849 14.866C24.6335 14.3664 24.3746 13.9318 24.007 13.5415C23.6187 13.172 23.1864 12.9118 22.6674 12.7374C22.1483 12.5852 21.4999 12.498 20.7013 12.498V12.4994Z" fill="currentColor"></path>
    <path d="M28.2276 12.4985C29.7588 12.4985 31 11.265 31 9.74338C31 8.22178 29.7588 6.98828 28.2276 6.98828C26.6965 6.98828 25.4553 8.22178 25.4553 9.74338C25.4553 11.265 26.6965 12.4985 28.2276 12.4985Z" fill="currentColor"></path>
  </symbol>
  <symbol fill="none" xmlns="http://www.w3.org/2000/svg" viewBox="0 0 15 16" id="ic_search">
    <path d="M14.6666 13.0466L11.5746 9.95474C12.3198 8.8791 12.6925 7.67997 12.6925 6.358C12.6925 5.49863 12.5257 4.67675 12.192 3.89253C11.8586 3.10818 11.4078 2.43213 10.8399 1.86422C10.272 1.29631 9.59603 0.84554 8.81184 0.512062C8.0274 0.178489 7.20558 0.0117188 6.34621 0.0117188C5.48691 0.0117188 4.66503 0.178489 3.88081 0.512062C3.09646 0.84554 2.42041 1.29631 1.8525 1.86422C1.28453 2.43213 0.833821 3.10831 0.500311 3.89253C0.16677 4.67684 0 5.49863 0 6.358C0 7.2173 0.16677 8.0389 0.500311 8.82334C0.833789 9.60756 1.28453 10.2835 1.8525 10.8514C2.42041 11.4195 3.09659 11.8701 3.88081 12.2038C4.66512 12.5373 5.48691 12.704 6.34621 12.704C7.66848 12.704 8.86741 12.3312 9.94311 11.5862L13.0351 14.669C13.2514 14.8973 13.5215 15.0116 13.8463 15.0116C14.1588 15.0116 14.4293 14.8974 14.6575 14.669C14.8858 14.4407 15 14.1703 15 13.8578C15.0001 13.5395 14.889 13.2689 14.6666 13.0466ZM9.19931 9.21078C8.40906 10.0012 7.4581 10.3963 6.34621 10.3963C5.23452 10.3963 4.28356 10.0011 3.49325 9.21078C2.70293 8.42053 2.30779 7.46969 2.30779 6.35781C2.30779 5.24611 2.70303 4.29499 3.49325 3.50484C4.2834 2.71449 5.23452 2.31938 6.34621 2.31938C7.45798 2.31938 8.40893 2.71465 9.19931 3.50484C9.98969 4.29499 10.3848 5.24611 10.3848 6.35781C10.3848 7.46969 9.98956 8.42053 9.19931 9.21078Z" fill="currentColor"></path>
  </symbol>
  <symbol fill="none" xmlns="http://www.w3.org/2000/svg" viewBox="0 0 36 36" id="ic_tg">
    <path d="M18 35.9961C27.9411 35.9961 36 27.9372 36 17.9961C36 8.05497 27.9411 -0.00390625 18 -0.00390625C8.05887 -0.00390625 0 8.05497 0 17.9961C0 27.9372 8.05887 35.9961 18 35.9961Z" fill="var(--icon_bg)"></path>
    <path d="M8.23738 17.6054L25.5924 10.9139C26.3979 10.6229 27.1014 11.1104 26.8404 12.3284L26.8419 12.3269L23.8869 26.2484C23.6679 27.2354 23.0814 27.4754 22.2609 27.0104L17.7609 23.6939L15.5904 25.7849C15.3504 26.0249 15.1479 26.2274 14.6829 26.2274L15.0024 21.6479L23.3424 14.1134C23.7054 13.7939 23.2614 13.6139 22.7829 13.9319L12.4764 20.4209L8.03338 19.0349C7.06888 18.7289 7.04788 18.0704 8.23738 17.6054Z" fill="currentColor"></path>
  </symbol>
  <symbol fill="none" xmlns="http://www.w3.org/2000/svg" viewBox="0 0 21 24" id="ic_video_play">
    <path d="M20 10.268C21.3333 11.0378 21.3333 12.9623 20 13.7321L3.5 23.2583C2.16666 24.0281 0.500001 23.0659 0.500001 21.5263L0.500002 2.47372C0.500002 0.934117 2.16667 -0.0281314 3.5 0.741669L20 10.268Z" fill="currentColor"></path>
  </symbol>
  <symbol fill="none" xmlns="http://www.w3.org/2000/svg" viewBox="0 0 36 36" id="ic_vk">
    <path d="M18 35.9961C27.9411 35.9961 36 27.9372 36 17.9961C36 8.05497 27.9411 -0.00390625 18 -0.00390625C8.05888 -0.00390625 0 8.05497 0 17.9961C0 27.9372 8.05888 35.9961 18 35.9961Z" fill="var(--icon_bg)"></path>
    <path d="M26.3038 23.1407C25.8822 23.1999 23.8335 23.1407 23.7269 23.1407C23.1972 23.1461 22.6868 22.9427 22.3059 22.5746C21.8724 22.1578 21.4816 21.6983 21.0672 21.2649C20.9413 21.1328 20.806 21.0101 20.6622 20.8978C20.3235 20.6396 19.9895 20.6988 19.8309 21.0967C19.7066 21.528 19.621 21.9695 19.5751 22.416C19.5677 22.604 19.486 22.7815 19.3479 22.9094C19.2098 23.0372 19.0266 23.1051 18.8385 23.0981C18.559 23.1123 18.2795 23.1194 18.0024 23.1123C16.9944 23.107 16.0019 22.8636 15.1059 22.4017C14.1385 21.8612 13.2954 21.1237 12.6309 20.237C11.5676 18.8331 10.6488 17.3254 9.88823 15.737C9.84796 15.6565 9.0498 13.9583 9.03086 13.8802C8.98137 13.7689 8.97665 13.6428 9.01766 13.5282C9.05868 13.4135 9.14229 13.319 9.25112 13.2644C9.39323 13.2099 12.0245 13.2644 12.0672 13.2644C12.2631 13.2625 12.4545 13.3233 12.6134 13.4379C12.7724 13.5526 12.8905 13.715 12.9506 13.9015C13.4372 15.1421 14.1018 16.3054 14.9235 17.3546C15.0381 17.4961 15.173 17.6198 15.3238 17.7217C15.3626 17.7592 15.4108 17.7857 15.4633 17.7984C15.5158 17.811 15.5707 17.8094 15.6224 17.7937C15.6741 17.778 15.7206 17.7488 15.7572 17.7091C15.7938 17.6694 15.8192 17.6206 15.8306 17.5678C15.9347 17.2254 15.9959 16.8713 16.013 16.5138C16.0272 15.8033 16.013 15.3296 15.9727 14.6191C15.987 14.377 15.9053 14.139 15.7452 13.9567C15.5851 13.7745 15.3597 13.6627 15.1177 13.6457C14.9093 13.6102 14.8809 13.4396 15.0253 13.2691C15.3024 12.9162 15.6861 12.8594 16.103 12.8381C16.733 12.8025 17.3653 12.8381 17.9977 12.8381H18.1351C18.4127 12.8374 18.6897 12.8651 18.9616 12.9209C19.1207 12.9535 19.2649 13.0366 19.3729 13.1578C19.4809 13.279 19.5468 13.4319 19.5609 13.5936C19.5928 13.7725 19.6071 13.9542 19.6035 14.1359C19.5869 14.9104 19.549 15.6849 19.5395 16.4617C19.5339 16.7686 19.5617 17.0751 19.6224 17.3759C19.7148 17.7881 19.9966 17.8923 20.2856 17.5915C20.6457 17.205 20.9758 16.7917 21.2732 16.3552C21.808 15.5603 22.2483 14.7059 22.5853 13.8091C22.7677 13.3496 22.9074 13.2478 23.4024 13.2478H26.1948C26.3614 13.245 26.5275 13.2674 26.6874 13.3141C26.7439 13.3292 26.7966 13.3557 26.8424 13.3919C26.8882 13.4282 26.926 13.4736 26.9536 13.5251C26.9811 13.5766 26.9978 13.6332 27.0025 13.6915C27.0073 13.7497 27 13.8083 26.9811 13.8636C26.8179 14.4577 26.5376 15.0133 26.1569 15.4978C25.5885 16.3007 24.9916 17.0846 24.409 17.8662C24.3353 17.9685 24.2681 18.0753 24.2077 18.186C23.9898 18.5791 24.0064 18.8017 24.3214 19.1333C24.8282 19.6544 25.3706 20.1446 25.8585 20.6799C26.2183 21.0699 26.5432 21.4908 26.8295 21.9375C27.1895 22.5154 26.9693 23.0459 26.3038 23.1407Z" fill="currentColor"></path>
  </symbol>
</svg>